<?xml version="1.0" encoding="UTF-8"?>
<!DOCTYPE svg PUBLIC "-//W3C//DTD SVG 1.1//EN" "http://www.w3.org/Graphics/SVG/1.1/DTD/svg11.dtd">
<svg version="1.1" xmlns="http://www.w3.org/2000/svg" xmlns:xlink="http://www.w3.org/1999/xlink" x="0" y="0" width="570" height="454" viewBox="0, 0, 570, 454">
  <g id="Layer_1">
    <g>
      <path d="M321.453,269.18 L299.414,263.476 L316.656,232.383 L332.187,234.398 L321.453,269.18 z" fill="#2B2427"/>
      <path d="M321.453,269.18 L299.414,263.476 L316.656,232.383 L332.187,234.398 L321.453,269.18 z" fill-opacity="0" stroke="#1A1919" stroke-width="5" stroke-linecap="round" stroke-linejoin="round"/>
    </g>
    <g>
      <path d="M11.953,277.187 C5.625,297.461 6.813,298.242 12.172,308.789 C16.188,316.688 50.938,344.687 95.781,351.57 C114.313,354.414 176.5,348.742 201.375,344.484 C274.141,332.008 275.844,269.211 318.344,243.773 C319.961,251.789 321.453,269.18 321.453,269.18 C321.453,269.18 404.57,205.961 413.086,187.227 C418.906,174.453 424.297,134.055 424.297,134.055 L121.438,213.164 L11.953,277.187 z" fill="#2B2427"/>
      <path d="M11.953,277.187 C5.625,297.461 6.813,298.242 12.172,308.789 C16.188,316.688 50.938,344.687 95.781,351.57 C114.313,354.414 176.5,348.742 201.375,344.484 C274.141,332.008 275.844,269.211 318.344,243.773 C319.961,251.789 321.453,269.18 321.453,269.18 C321.453,269.18 404.57,205.961 413.086,187.227 C418.906,174.453 424.297,134.055 424.297,134.055 L121.438,213.164 L11.953,277.187 z" fill-opacity="0" stroke="#1A1919" stroke-width="5" stroke-linecap="round" stroke-linejoin="round"/>
    </g>
    <g>
      <path d="M418.375,52.969 C416.86,46.063 395.039,32.195 393.266,13.562 C342.047,12.031 235.555,85.234 235.555,85.234 L156.219,134.664 C132.344,167.422 19.422,239.508 11.031,272.93 C6.891,289.398 14.656,295.555 43.125,312.531 C76.211,332.258 129.906,332.664 184.571,327 C223.5,322.977 287.828,259.617 327.734,226.742 C349.625,208.703 395.75,191.844 412.656,146.555 C417.695,133.039 422.735,72.242 418.375,52.969 z" fill="#934A23"/>
      <path d="M418.375,52.969 C416.86,46.063 395.039,32.195 393.266,13.562 C342.047,12.031 235.555,85.234 235.555,85.234 L156.219,134.664 C132.344,167.422 19.422,239.508 11.031,272.93 C6.891,289.398 14.656,295.555 43.125,312.531 C76.211,332.258 129.906,332.664 184.571,327 C223.5,322.977 287.828,259.617 327.734,226.742 C349.625,208.703 395.75,191.844 412.656,146.555 C417.695,133.039 422.735,72.242 418.375,52.969 z" fill-opacity="0" stroke="#1A1919" stroke-width="5" stroke-linecap="round" stroke-linejoin="round"/>
    </g>
    <path d="M303.945,171.203 C339.961,169.351 407.696,145.742 420.118,74.867" fill-opacity="0" stroke="#1A1919" stroke-width="5" stroke-dasharray="5,7" stroke-linecap="round" stroke-linejoin="round"/>
    <g>
      <path d="M293.735,91.133 C273.406,73.726 215.274,95.938 215.274,95.938 C280.531,39.352 374.187,-5.18 399.375,20.664 C419.414,41.227 415.36,79.445 389.141,113.117 C363.242,146.383 321.734,178.274 321.734,178.274 C321.734,178.274 314.078,108.547 293.735,91.133 z" fill="#602E20"/>
      <path d="M293.735,91.133 C273.406,73.726 215.274,95.938 215.274,95.938 C280.531,39.352 374.187,-5.18 399.375,20.664 C419.414,41.227 415.36,79.445 389.141,113.117 C363.242,146.383 321.734,178.274 321.734,178.274 C321.734,178.274 314.078,108.547 293.735,91.133 z" fill-opacity="0" stroke="#1A1919" stroke-width="5" stroke-linecap="round" stroke-linejoin="round"/>
    </g>
    <path d="M67.774,320.57 C67.774,320.57 88.055,285.188 104.75,289.164 C121.485,293.148 214.25,261.805 229.594,246.765 M161.172,143.984 C157.36,148.078 93.891,212.086 82.539,218.235 C71.219,224.344 21.984,269.227 19.141,293.078" fill-opacity="0" stroke="#1A1919" stroke-width="5" stroke-dasharray="5,7" stroke-linecap="round" stroke-linejoin="round"/>
    <g>
      <path d="M404.86,15.742 C381.813,-14.82 256.719,51.844 197.36,99.976 C186.008,109.187 176.336,117.242 168.016,124.32 L175.219,142.391 C200.406,119.297 231.289,89.273 231.289,89.273 C231.289,89.273 376.367,-6.664 397.375,24.102 C431.422,73.953 353.157,138.82 326.524,172.234 C320.157,161.727 281.055,104.719 267.188,118.242 C267.188,118.242 205.407,183.32 203.68,196.945 C200.234,224.008 223.297,234.773 240.868,255.976 C257.828,242.766 309.649,195.539 318.711,196.68 C327.797,197.82 329.141,228.867 329.141,228.867 C329.14,228.867 403.594,178.93 418.266,150.617 C433.062,122.07 427.891,46.274 404.86,15.742 z" fill="#934A23"/>
      <path d="M404.86,15.742 C381.813,-14.82 256.719,51.844 197.36,99.976 C186.008,109.187 176.336,117.242 168.016,124.32 L175.219,142.391 C200.406,119.297 231.289,89.273 231.289,89.273 C231.289,89.273 376.367,-6.664 397.375,24.102 C431.422,73.953 353.157,138.82 326.524,172.234 C320.157,161.727 281.055,104.719 267.188,118.242 C267.188,118.242 205.407,183.32 203.68,196.945 C200.234,224.008 223.297,234.773 240.868,255.976 C257.828,242.766 309.649,195.539 318.711,196.68 C327.797,197.82 329.141,228.867 329.141,228.867 C329.14,228.867 403.594,178.93 418.266,150.617 C433.062,122.07 427.891,46.274 404.86,15.742 z" fill-opacity="0" stroke="#1A1919" stroke-width="5" stroke-linecap="round" stroke-linejoin="round"/>
    </g>
    <path d="M325.516,184.453 C359.875,156.899 426.992,87.633 419.125,44.82 M265.859,125.156 M252.18,112.922 C247.07,105.226 211.914,88.711 211.914,88.711" fill-opacity="0" stroke="#1A1919" stroke-width="5" stroke-dasharray="5,7" stroke-linecap="round" stroke-linejoin="round"/>
    <path d="M296.172,91.414 C333.868,73.898 378.438,61.211 384.906,101.664" fill-opacity="0" stroke="#1A1919" stroke-width="5" stroke-linecap="round" stroke-linejoin="round"/>
    <g>
      <path d="M214.18,79.227 C205.039,83.476 151.102,127.961 147.641,132.758 C160.094,136.016 254.617,231.992 258.282,247.11 C261.953,262.195 283.985,247.039 272.094,223.883 C260.187,200.672 238.5,178.805 238.5,178.805 L264.992,150.156 C276.563,157.734 305.789,201.453 308.453,208.781 C311.11,216.094 333.758,219.289 327.742,197.031 C315.203,150.578 214.18,79.227 214.18,79.227 z" fill="#934A23"/>
      <path d="M214.18,79.227 C205.039,83.476 151.102,127.961 147.641,132.758 C160.094,136.016 254.617,231.992 258.282,247.11 C261.953,262.195 283.985,247.039 272.094,223.883 C260.187,200.672 238.5,178.805 238.5,178.805 L264.992,150.156 C276.563,157.734 305.789,201.453 308.453,208.781 C311.11,216.094 333.758,219.289 327.742,197.031 C315.203,150.578 214.18,79.227 214.18,79.227 z" fill-opacity="0" stroke="#1A1919" stroke-width="5" stroke-linecap="round" stroke-linejoin="round"/>
    </g>
    <path d="M254.937,190.523 L228.992,214.422 L248.735,239.422 L274.805,215.656 L254.937,190.523 z M239.828,214.719 L253.469,202.195 L263.891,215.367 L250.219,227.859 L239.828,214.719" fill="#85752D"/>
    <path d="M254.937,190.523 L228.992,214.422 L248.735,239.422 L274.805,215.656 L254.937,190.523 z M239.828,214.719 L253.469,202.195 L263.891,215.367 L250.219,227.859 L239.828,214.719 z" fill-opacity="0" stroke="#1A1919" stroke-width="5" stroke-linecap="round" stroke-linejoin="round"/>
    <path d="M302.984,150.477 L276.523,174.812 L296.445,200.07 L323.008,175.867 L302.984,150.477 z M287.516,175.07 L301.422,162.305 L311.937,175.617 L297.985,188.352 L287.516,175.07" fill="#85752D"/>
    <path d="M302.984,150.477 L276.523,174.812 L296.445,200.07 L323.008,175.867 L302.984,150.477 z M287.516,175.07 L301.422,162.305 L311.937,175.617 L297.985,188.352 L287.516,175.07 z" fill-opacity="0" stroke="#1A1919" stroke-width="5" stroke-linecap="round" stroke-linejoin="round"/>
    <g>
      <path d="M470.094,333.445 L446.883,330.758 L462.063,298.633 L478.125,298.633 L470.094,333.445 z" fill="#2B2427"/>
      <path d="M470.094,333.445 L446.883,330.758 L462.063,298.633 L478.125,298.633 L470.094,333.445 z" fill-opacity="0" stroke="#1A1919" stroke-width="5" stroke-linecap="round" stroke-linejoin="round"/>
    </g>
    <g>
      <path d="M140.844,382.68 C134.86,404.024 136.235,404.64 142.719,414.555 C147.578,421.992 187.5,445.383 237.094,445.805 C257.438,445.977 324.172,431.305 350.422,423.516 C426.25,401.016 422.922,339.352 464.75,309.344 C467.094,316.852 470.094,333.445 470.094,333.445 C470.093,333.445 548.977,262.813 555.789,244.18 C560.422,231.531 562.032,193.305 562.032,193.305 L256.078,304.586 L140.844,382.68 z" fill="#2B2427"/>
      <path d="M140.844,382.68 C134.86,404.024 136.235,404.64 142.719,414.555 C147.578,421.992 187.5,445.383 237.094,445.805 C257.438,445.977 324.172,431.305 350.422,423.516 C426.25,401.016 422.922,339.352 464.75,309.344 C467.094,316.852 470.094,333.445 470.094,333.445 C470.093,333.445 548.977,262.813 555.789,244.18 C560.422,231.531 562.032,193.305 562.032,193.305 L256.078,304.586 L140.844,382.68 z" fill-opacity="0" stroke="#1A1919" stroke-width="5" stroke-linecap="round" stroke-linejoin="round"/>
    </g>
    <g>
      <path d="M548.75,119.352 C546.625,113.227 523.82,102.773 520.422,86.016 C469.391,89.656 367.07,168.484 367.07,168.484 L287.907,224.344 C264.781,258.719 147.094,343.93 139.594,378.516 C135.86,395.68 144.766,400.82 177.094,413.93 C214.516,429.102 272.922,421.844 331.235,408.477 C372.266,399.07 434.594,328.515 472.922,291.852 C493.711,271.977 538.828,250.555 551.602,206.203 C555.391,193.094 554.805,136.531 548.75,119.352 z" fill="#934A23"/>
      <path d="M548.75,119.352 C546.625,113.227 523.82,102.773 520.422,86.016 C469.391,89.656 367.07,168.484 367.07,168.484 L287.907,224.344 C264.781,258.719 147.094,343.93 139.594,378.516 C135.86,395.68 144.766,400.82 177.094,413.93 C214.516,429.102 272.922,421.844 331.235,408.477 C372.266,399.07 434.594,328.515 472.922,291.852 C493.711,271.977 538.828,250.555 551.602,206.203 C555.391,193.094 554.805,136.531 548.75,119.352 z" fill-opacity="0" stroke="#1A1919" stroke-width="5" stroke-linecap="round" stroke-linejoin="round"/>
    </g>
    <path d="M443.945,241.828 C480.5,235.89 546.594,205.992 552.438,139.195" fill-opacity="0" stroke="#1A1919" stroke-width="5" stroke-dasharray="5,7" stroke-linecap="round" stroke-linejoin="round"/>
    <g>
      <path d="M427.094,167.68 C405.008,153.633 346.914,180.805 346.914,180.805 C409.602,120.976 499.93,70.867 527.094,91.852 C548.703,108.563 548.164,143.883 525.118,177.742 C502.07,211.609 462.719,246.43 462.719,246.43 C462.719,246.43 449.157,181.711 427.094,167.68 z" fill="#602E20"/>
      <path d="M427.094,167.68 C405.008,153.633 346.914,180.805 346.914,180.805 C409.602,120.976 499.93,70.867 527.094,91.852 C548.703,108.563 548.164,143.883 525.118,177.742 C502.07,211.609 462.719,246.43 462.719,246.43 C462.719,246.43 449.157,181.711 427.094,167.68 z" fill-opacity="0" stroke="#1A1919" stroke-width="5" stroke-linecap="round" stroke-linejoin="round"/>
    </g>
    <path d="M204.594,418.515 C204.594,418.515 224.594,380.18 242.922,381.844 C261.25,383.516 357.922,340.18 372.922,323.516 M293.75,232.687 C290,237.062 226.469,307.055 214.594,314.555 C202.719,322.055 151.469,373.305 149.594,397.68" fill-opacity="0" stroke="#1A1919" stroke-width="5" stroke-dasharray="5,7" stroke-linecap="round" stroke-linejoin="round"/>
    <g>
      <path d="M532.094,86.851 C506.641,61.414 386.313,135.031 328.61,186.609 C317.422,196.609 307.875,205.367 299.625,213.078 L308.398,229.508 C333.133,204.578 362.977,172.766 362.977,172.766 C362.977,172.766 501.953,69.32 525.422,95.188 C563.532,137.188 491.242,205.672 467.094,240.18 C459.727,230.977 415.235,181.773 402.094,196.016 C402.094,196.016 342.922,265.187 342.094,278.516 C340.407,305.148 365.422,312.688 385.422,331.016 C402.094,316.016 451.797,264.266 461.172,264.266 C470.547,264.266 474.547,293.719 474.547,293.719 C474.546,293.719 545.532,237.492 557.578,209.367 C569.625,181.25 557.516,112.297 532.094,86.851 z" fill="#934A23"/>
      <path d="M532.094,86.851 C506.641,61.414 386.313,135.031 328.61,186.609 C317.422,196.609 307.875,205.367 299.625,213.078 L308.398,229.508 C333.133,204.578 362.977,172.766 362.977,172.766 C362.977,172.766 501.953,69.32 525.422,95.188 C563.532,137.188 491.242,205.672 467.094,240.18 C459.727,230.977 415.235,181.773 402.094,196.016 C402.094,196.016 342.922,265.187 342.094,278.516 C340.407,305.148 365.422,312.688 385.422,331.016 C402.094,316.016 451.797,264.266 461.172,264.266 C470.547,264.266 474.547,293.719 474.547,293.719 C474.546,293.719 545.532,237.492 557.578,209.367 C569.625,181.25 557.516,112.297 532.094,86.851 z" fill-opacity="0" stroke="#1A1919" stroke-width="5" stroke-linecap="round" stroke-linejoin="round"/>
    </g>
    <path d="M467.094,251.851 C499.594,221.851 560.406,150.195 548.75,111.852 M401.25,202.687 M386.25,192.688 C380.422,186.015 342.922,174.352 342.922,174.352" fill-opacity="0" stroke="#1A1919" stroke-width="5" stroke-dasharray="5,7" stroke-linecap="round" stroke-linejoin="round"/>
    <path d="M429.594,167.68 C466.313,147.344 509.875,130.992 519.875,167.609" fill-opacity="0" stroke="#1A1919" stroke-width="5" stroke-linecap="round" stroke-linejoin="round"/>
    <g>
      <path d="M344.594,165.187 C335.406,170.188 282.094,218.516 278.75,223.515 C292.094,225.187 397.906,306.023 402.906,320.188 C407.907,334.344 429.578,316.844 415.407,296.016 C401.25,275.188 377.094,256.844 377.094,256.844 L402.282,226.43 C414.781,232.258 448.328,270.383 451.656,277.055 C455,283.719 478.445,283.992 470.406,263.516 C453.75,221.016 344.594,165.187 344.594,165.187 z" fill="#934A23"/>
      <path d="M344.594,165.187 C335.406,170.188 282.094,218.516 278.75,223.515 C292.094,225.187 397.906,306.023 402.906,320.188 C407.907,334.344 429.578,316.844 415.407,296.016 C401.25,275.188 377.094,256.844 377.094,256.844 L402.282,226.43 C414.781,232.258 448.328,270.383 451.656,277.055 C455,283.719 478.445,283.992 470.406,263.516 C453.75,221.016 344.594,165.187 344.594,165.187 z" fill-opacity="0" stroke="#1A1919" stroke-width="5" stroke-linecap="round" stroke-linejoin="round"/>
    </g>
    <path d="M395.039,266.094 L369.852,292.258 L392.36,313.945 L417.563,287.766 L395.039,266.094 z M381.172,291.195 L394.407,277.453 L406.235,288.828 L393,302.578 L381.172,291.195" fill="#85752D"/>
    <path d="M395.039,266.094 L369.852,292.258 L392.36,313.945 L417.563,287.766 L395.039,266.094 z M381.172,291.195 L394.407,277.453 L406.235,288.828 L393,302.578 L381.172,291.195 z" fill-opacity="0" stroke="#1A1919" stroke-width="5" stroke-linecap="round" stroke-linejoin="round"/>
    <path d="M441.289,222.344 L416.102,248.508 L438.61,270.195 L463.812,244.016 L441.289,222.344 z M427.422,247.445 L440.656,233.703 L452.485,245.078 L439.25,258.828 L427.422,247.445" fill="#85752D"/>
    <path d="M441.289,222.344 L416.102,248.508 L438.61,270.195 L463.812,244.016 L441.289,222.344 z M427.422,247.445 L440.656,233.703 L452.485,245.078 L439.25,258.828 L427.422,247.445 z" fill-opacity="0" stroke="#1A1919" stroke-width="5" stroke-linecap="round" stroke-linejoin="round"/>
  </g>
</svg>
