<?xml version="1.0"?>
<svg xmlns:rdf="http://www.w3.org/1999/02/22-rdf-syntax-ns#" xmlns="http://www.w3.org/2000/svg" xmlns:cc="http://web.resource.org/cc/" xmlns:dc="http://purl.org/dc/elements/1.1/" id="Layer_1" style="enable-background:new 0 0 136.982 136.931" space="preserve" viewBox="0 0 136.982 136.931" version="1.1">
  <g id="g3">
    <path id="path5" fill="#E5E5E5" d="m60.826 135.77c-13.458-4.379-26.916-9.652-39.22-16.683-6.07-3.468-11.945-7.309-17.586-11.437-3.25-2.381-3.229-4.793-3.193-8.444 0.05-4.964 0.099-9.928 0.148-14.892 0.03-3.046-0.763-7.462 0.104-10.411 0-4.587 11.871-5.857 14.8-6.638 17.888-4.761 35.775-9.52 53.663-14.281 5.121-1.363 11.096 2.041 15.854 3.848 9.991 3.799 19.982 7.597 29.972 11.394 3.198 1.213 20.819 5.31 20.869 10.039 0.096 9.414 0.193 18.826 0.29 28.237 0.033 3.394-9.832 6.785-12.182 7.957-7.937 3.967-15.917 7.663-24.215 10.819-9.026 3.435-18.192 6.556-27.504 9.125-3.518 0.97-8.199 2.83-11.81 1.37m0.751 1.16l-0.022-0.01 0.022 0.01z"/>
    <path id="path7" fill="#fff" d="m134.62 74.774c3.271 6.31-11.698 8.054-15.592 9.149-11.834 3.321-23.687 6.587-35.591 9.648-5.08 1.307-10.17 2.587-15.292 3.72-5.639 1.248-8.771 0.519-14.316-1.327-12.946-4.311-25.739-9.098-38.491-13.948-3.258-1.238-6.514-2.485-9.764-3.748-3.992-1.549-6.356-6.748-0.781-8.571 4.889-2.456 11.727-3.123 16.984-4.524 10.515-2.8 21.028-5.601 31.543-8.401 5.531-1.472 11.311-3.689 16.983-4.523 3.799-1.173 9.015 1.676 12.607 3.032 6.702 2.525 13.405 5.055 20.107 7.58 10.53 3.972 21.06 7.941 31.6 11.913"/>
    <path id="path9" fill="#F4F4F4" d="m66.547 99.065c0-4.86-12.604-7.988-16.154-9.47-10.023-4.182-20.044-8.364-30.066-12.544-3.075-1.283-14.118-8.241-17.492-6.246-2.708 1.603-1.881 5.864-1.906 8.411-0.054 5.556-0.108 11.114-0.163 16.671-0.027 2.733-0.88 7.523 0.92 9.906 3.051 4.041 9.892 7.145 14.025 9.741 13.718 8.608 28.836 14.854 44.172 19.959 1.153 0.385 6.603 1.818 6.606 0.028 0.004-3.409 0.011-6.816 0.016-10.224 0.015-8.723 0.027-17.445 0.042-26.167v-0.068"/>
    <path id="path11" fill="#A0A0A0" d="m0.916 73.564c-0.085 8.494-0.171 16.988-0.255 25.481-0.035 3.413-0.289 5.964 2.805 8.257 6.34 4.694 12.996 9.03 19.896 12.855 11.71 6.491 25.005 12.464 38.017 15.881 1.542 0.406 5.184 1.17 5.187-1.036 0.007-4.09 0.013-8.181 0.02-12.271 0.008-5.26 0.016-10.519 0.024-15.777 0.003-2.843 0.699-6.743-0.257-9.521-1.354-3.938-13.685-6.978-17.025-8.369-10.035-4.189-20.068-8.376-30.103-12.565-3.094-1.29-14.803-8.771-17.608-4.637-0.235 0.572-0.468 1.14-0.701 1.706m59.917 62.156c-13.574-4.524-27.14-9.771-39.556-16.929-6.123-3.532-12.059-7.435-17.739-11.64-3.287-2.433-2.755-5.43-2.719-9.068 0.049-5.093 0.101-10.187 0.15-15.28 0.028-2.917-1-8.19 0.762-10.819 2.696-4.026 14.469 3.436 17.467 4.688 10.036 4.188 20.07 8.375 30.106 12.563 3.274 1.367 15.579 4.393 16.911 8.266 0.839 2.442 0.25 5.84 0.246 8.334-0.008 5.634-0.016 11.269-0.025 16.901-0.009 5.16 2.949 16.48-5.603 12.99"/>
    <path id="path13" fill="#E5E5E5" d="m63.084 136.36c10.208-0.516 20.967-5.261 30.422-8.651 13.474-4.833 26.238-10.844 38.941-17.405 2.906-1.498 4.375-2.532 4.34-5.899-0.054-5.197-0.107-10.393-0.162-15.587-0.034-3.382 1.779-16.174-4.985-14.187-17.953 5.277-35.905 10.553-53.858 15.83-3.159 0.928-13.25 1.988-15.424 4.692-1.198 1.489-0.471 6.254-0.463 7.962 0.025 5.477 0.052 10.952 0.077 16.429 0.016 3.408-1.683 14.663 0.872 16.749-0.38-0.31-1.513-0.362-2.012-0.523 0.75 0.19 1.502 0.39 2.252 0.59"/>
    <path id="path15" fill="#A0A0A0" d="m62.61 95.038c-2.871 2.015-0.755 16.337-0.741 19.146 0.033 7.265 0.067 14.529 0.102 21.794-0.375-0.098-0.749-0.195-1.124-0.292 3.001 2.689 11.593-1.126 14.423-1.945 13.579-3.929 27.047-8.674 39.84-14.704 3.707-1.748 21.633-7.667 21.58-12.843-0.087-8.361-0.174-16.725-0.26-25.087-0.06-5.657-2.54-6.942-7.427-5.511-7.858 2.301-15.719 4.603-23.578 6.903-14.265 4.173-28.539 8.353-42.81 12.533m-0.545 40.872c-0.027-8.139-0.054-16.28-0.082-24.421-0.008-2.399-1.737-15.563 1.424-16.492 17.657-5.176 35.312-10.354 52.967-15.533 4.192-1.229 11.805-5.238 16.231-4.76 6.519 0.7 3.81 19.407 3.854 23.7 0.024 2.366 1.065 7.253-0.26 9.472-1.71 2.863-9.151 5.136-11.87 6.493-14.347 7.172-29.117 13.074-44.452 17.814-4.549 1.41-12.839 5.39-17.803 3.73"/>
    <linearGradient id="XMLID_2_" y2="458.71" gradientUnits="userSpaceOnUse" y1="458.71" gradientTransform="matrix(1.8227 249.12 249.12 -1.8227 -1.1377e5 59834)" x2="-235.32" x1="-236.95">
      <stop id="stop18" stop-color="#fff" offset="0"/>
      <stop id="stop20" offset="1"/>
    </linearGradient>
    <path id="path22" fill="url(#XMLID_2_)" d="m70.29 52.336c-16.319 4.343-32.637 8.686-48.955 13.026-5.418 1.443-12.027 2.198-17.135 4.56-6.314 2.922-3.619 16.554-3.678 22.402-0.033 3.442-0.068 6.885-0.104 10.327-0.048 4.813 7.644 8.415 11.034 10.653 14.675 9.695 30.784 16.646 47.407 22.266 7.081 2.393 14.181-0.741 21.077-2.869 12.352-3.813 24.359-8.303 35.986-13.927 5.582-2.699 11.165-5.402 16.748-8.104 4.745-2.298 4.222-4.897 4.174-9.565-0.066-6.482-0.134-12.964-0.199-19.446-0.041-3.873-0.175-5.875-4.216-7.411-10.677-4.055-21.353-8.113-32.028-12.17-5.873-2.232-11.745-4.462-17.617-6.694-3.531-1.343-8.722-4.203-12.483-3.043m-42.301 69.704c-7.617-3.814-14.854-8.42-21.799-13.344-3.153-2.235-5.043-3.79-5.003-7.848 0.088-8.871 0.176-17.744 0.263-26.616 0.043-4.337 9.557-5.224 12.537-6.015 10.221-2.721 20.442-5.441 30.663-8.161 8.067-2.146 16.135-4.295 24.204-6.441 5.202-1.384 9.733 1.087 14.56 2.922 16.528 6.281 33.054 12.562 49.58 18.843 3.787 1.439 2.888 4.84 2.923 8.279 0.063 6.162 0.128 12.327 0.189 18.49 0.045 4.314 0.157 5.966-4.038 8.083-6.549 3.308-13.127 6.57-19.808 9.607-14.476 6.585-30.241 12.401-45.856 15.686-3.464 0.729-6.227-0.395-9.471-1.524-9.843-3.44-19.599-7.3-28.934-11.97"/>
    <path id="path24" fill="#F4F4F4" d="m59.216 30.247c0 2.414-3.376 1.742-4.852 1.742-2.226 0-1.885-2.295-1.885-3.813 0-3.392-1.597-11.399 0-14.345 0-2.414 3.375-1.742 4.85-1.742 2.227 0 1.887 2.294 1.887 3.813v14.345"/>
    <path id="path26" fill="#A0A0A0" d="m57.718 11.65c-5.358 0-5.615 1.485-5.615 6.436 0 1.902-1.488 14.338 1.872 14.338 9.278 4.356 6.452-20.774 3.743-20.774m-4.537 19.519c-1.863-2.173-0.327-10.416-0.327-13.083 0-1.175-0.568-4.128 0.327-5.181 0.692-0.801 4.641-0.802 5.331 0 1.865 2.175 0.329 10.417 0.329 13.085 0 1.172 0.569 4.132-0.329 5.179-0.688 0.802-4.643 0.802-5.331 0"/>
    <path id="path28" fill="#fff" d="m115.93 50.563c0.274-6.825-16.573-8.955-21.603-10.561-6.899-2.207-10.339-7.838-16.552-11.199-6.298-3.406-12.346-1.928-18.855-0.623-10.276 2.06-20.554 4.12-30.829 6.181-5.243 1.052-12.715 0.58-12.811 7.114-0.121 8.16-1.595 17.442-0.253 25.507 0.633 3.806 16.108 7.64 18.909 8.736 8.256 3.232 16.512 6.467 24.768 9.699 4.012 1.572 8.415-0.229 12.463-1.214 11.685-2.84 23.331-5.895 34.641-10.011 5.166-1.879 10.378-2.426 10.306-8.533-0.07-5.031-0.13-10.064-0.19-15.096"/>
    <path id="path30" fill="#F4F4F4" d="m63.683 82.82c0 6.569-11.401 0.059-13.858-0.897-8.373-3.262-16.745-6.523-25.118-9.785-3.638-1.418-9.735-2.331-9.686-6.865 0.088-7.954 0.178-15.905 0.265-23.859 0.096-8.627 10.154-2.242 13.635 1.338 1.992 2.048 5.083 7.165 7.801 8.096 3.413 1.17 6.827 2.34 10.24 3.511 3.29 1.127 17.08 3.611 17.014 8.161-0.097 6.768-0.196 13.533-0.293 20.3"/>
    <path id="path32" fill="#A0A0A0" d="m15.234 39.4c-0.078 7.106-0.156 14.211-0.234 21.318-0.022 1.976-0.725 5.435 0.295 7.312 0.756 1.389 4.458 2.263 5.92 2.833 7.967 3.107 15.935 6.211 23.903 9.317 2.696 1.051 14.355 7.788 17.224 5.479 2.205-1.779 1.465-6.185 1.5-8.622 0.064-4.431 0.126-8.862 0.19-13.294 0.084-5.878-9.859-7.002-14.478-8.586-6.441-2.209-11.872-3.15-16.505-8.079-2.577-2.74-5.021-5.976-8.376-7.805-2.119-1.155-9.439-5.06-9.439 0.127m44.892 46.442c-13.202-5.142-26.404-10.285-39.607-15.428-1.331-0.52-4.414-1.231-5.093-2.47-1.153-2.101-0.291-6.186-0.265-8.401 0.053-4.758 0.105-9.514 0.156-14.27 0.022-1.983-0.787-6.872 1.303-8.187 1.889-1.192 6.779 1.61 8.525 2.64 3.41 2.015 6.019 5.577 8.694 8.42 4.34 4.609 11.039 5.58 16.958 7.612 5.355 1.837 13.167 2.314 13.073 8.832-0.031 2.274 1.264 23.462-3.744 21.252m3.634-3.022z"/>
    <path id="path34" fill="#E5E5E5" d="m116.14 68.456c0 2.967-6.312 4.247-8.454 5.045-6.751 2.516-13.597 4.711-20.557 6.571-2.466 0.661-25.999 7.535-26.488 5.184-1.215-5.845-0.151-12.71-0.117-18.636 0.032-5.189-0.351-6.83 4.71-8.136 14.178-3.662 28.354-7.325 42.532-10.988 3.313-0.855 8.108-3.196 8.169 2.32 0.07 6.212 0.14 12.425 0.2 18.64"/>
    <path id="path36" fill="#A0A0A0" d="m61.237 59.427c-2.842 3.488-0.827 14.433-0.851 18.487-0.015 2.384-0.304 4.994 0.185 7.355 0.456 2.199 5.545-0.069 6.91-0.37 13.603-2.978 27.081-6.425 40.145-11.287 2.213-0.823 8.592-2.105 8.592-5.157 0.744-2.271-0.065-6.12-0.091-8.484-0.023-2.036 1.437-15.093-3.158-13.907-5.314 1.373-10.63 2.746-15.946 4.119-11.93 3.081-23.857 6.162-35.787 9.244m-0.734 23.956c0.035-5.937 0.072-11.872 0.108-17.809 0.029-4.879 0.085-5.859 4.688-7.047 14.165-3.649 28.329-7.301 42.492-10.952 3.263-0.84 8.016-3.184 8.075 2.24 0.058 5.257 1.893 13.703 0.203 18.64 0 2.917-6.393 4.215-8.485 4.992-6.793 2.524-13.679 4.728-20.678 6.595-6.445 1.719-12.938 3.261-19.452 4.687-3.346 0.732-6.671 3.025-6.947-1.346"/>
    <path id="path38" fill="#A0A0A0" d="m66.678 26.184c-15.825 3.172-31.648 6.347-47.473 9.519-6.939 1.39-4.417 13.478-4.496 18.872-0.055 3.672-0.109 7.344-0.163 11.017-0.053 3.566 2.681 4.031 5.366 5.083 8.786 3.444 17.571 6.888 26.357 10.333 6.101 2.392 12.744 6.495 19.384 4.952 16.215-3.765 32.377-7.982 47.831-14.241 5.893-2.385 2.831-16.452 2.831-21.722 0-5.09-7.124-5.72-10.987-6.95-5.084-1.617-10.168-3.235-15.25-4.853-3.58-1.138-7.546-6.017-10.441-8.395-2.981-2.451-9.18-4.707-12.951-3.615m-7.242 59.163c-13.483-5.844-27.38-11.117-41.162-16.211-5.81-2.146-2.773-17.446-2.698-22.515 0.028-2.045-0.869-7.352 0.858-8.963 1.542-1.581 5.76-1.673 7.692-2.063 10.162-2.037 20.324-4.074 30.484-6.112 7.076-1.417 12.966-3.429 19.96-1.235 6.422 2.018 9.952 9.038 16.165 11.032 7.526 2.414 16.546 3.918 23.56 7.555 2.605 1.351 1.354 11.714 1.381 14.006 0.062 5.056 1.387 8.55-3.854 10.614-10.573 4.167-21.407 7.396-32.406 10.231-4.222 1.09-15.436 6.113-19.988 3.661"/>
    <path id="path40" fill="#A0A0A0" d="m37.006 50.149c17.219-3.851 34.438-7.702 51.658-11.551-1.811-1.474-9.165-9.329-11.168-8.894-4.808 1.038-9.613 2.075-14.419 3.113-11.832 2.558-23.662 5.114-35.493 7.67 3.141 3.222 6.282 6.44 9.422 9.662"/>
    <path id="path42" fill="#1A7CC4" d="m63.871 42.41c7.162-1.645 14.325-3.289 21.486-4.935-3.944-3.225-6.063-6.809-11.102-5.615-5.907 1.398-11.815 2.797-17.722 4.196 2.446 2.116 4.892 4.236 7.338 6.354"/>
    <path id="path44" fill="#68A0F2" d="m60.53 39.037c4.228 3.5 5.508 2.549 10.947 1.399 4.148-0.878 8.262-1.916 12.352-3.035-3.596-3.782-5.59-5.65-10.582-4.763-5.278 0.939-10.467 2.323-15.589 3.893 0.935 0.859 1.891 1.699 2.872 2.506"/>
    <path id="path46" fill="#F4F4F4" d="m73.192 13.794c0 4.6-25.548 2.369-29.04 2.162-2.463-0.146-5.024 0.247-5.024-2.943v-9.557c0-5.348 24.974-2.781 28.626-2.488 3.366 0.266 5.438 0.1 5.438 3.929v8.897"/>
    <path id="path48" fill="#A0A0A0" d="m40.589 0.896c-2.941-0.009-3.316 14.992 0.362 15.28 10.221 0.802 20.542 0.717 30.765-0.027 2.981 0 3.3-14.91-0.314-15.288-10.195-1.067-20.624-1.239-30.813 0.035m0.062 14.383c-1.868-0.004-2.364-13.266 0.283-13.545 10.183-1.071 20.547-1.191 30.726 0.03 1.912 0.01 2.332 13.369-0.245 13.531-10.271 0.647-20.497 0.669-30.764-0.016"/>
    <path id="path50" fill="#1A7CC4" d="m70.199 11.906c0 2.992-19.942 1.571-22.261 1.481-1.45-0.057-5.816 0.604-5.816-1.777 0-1.528-0.746-5.283 0-6.573 0-3.266 20.198-1.687 22.822-1.532 6.364 0.373 5.255 2.526 5.255 8.401"/>
    <path id="path52" fill="#68A0F2" d="m69.45 11.306c0 2.427-17.169 1.338-19.005 1.292-1.506-0.037-5.908 0.626-7.231-0.554-1.089-0.972-0.341-4.839-0.341-6.124 0-3.3 18.189-1.749 20.58-1.639 6.369 0.297 5.997 0.945 5.997 7.025"/>
    <path id="path54" fill="#7ED8FC" d="m67.95 6.056c0 0.99-24.081 0.99-24.081 0 0.001-0.987 24.081-0.987 24.081 0"/>
    <path id="path56" fill="#7ED8FC" d="m78.994 34.036c0.184 1.338-17.457 4.096-17.565 3.312-0.191-1.334 17.459-4.096 17.565-3.312"/>
    <path id="path58" fill="#5E5D5D" d="m106.87 45.441c-4.128-1.348-8.252-2.695-12.379-4.043-4.64-1.515-6.313-1.426-11.13-0.271-2.771 0.665-5.54 1.333-8.312 1.995-2.028 0.486-9.163 3.329-10.261 2.697 2.773 1.373 5.543 2.754 8.308 4.145 4.662 2.347 6.43 2.364 11.605 1.117 3.807-0.918 7.612-1.83 11.417-2.746 2.492-0.602 8.942-3.524 10.752-2.894"/>
    <path id="path60" fill="#C6C6C6" d="m78.754 46.672c-2.494 0.594-4.988 1.191-7.481 1.785 4.32 2.19 6.44 1.083 11.187-0.057-1.236-0.575-2.47-1.153-3.706-1.728"/>
    <path id="path62" fill="#C6C6C6" d="m88.034 44.157c2.621-0.627 5.244-1.254 7.865-1.882-4.365-1.359-6.764-0.515-11.25 0.556 1.129 0.442 2.256 0.884 3.385 1.326"/>
    <path id="path64" fill="#C6C6C6" d="m83.173 48.227c2.882-0.689 5.762-1.379 8.644-2.071-4.8-1.943-7.271-0.874-12.338 0.344 1.231 0.574 2.464 1.153 3.694 1.727"/>
    <path id="path66" fill="#C6C6C6" d="m83.903 43.013c-2.637 0.629-5.275 1.258-7.912 1.889 4.119 1.877 6.921 0.485 11.312-0.566-1.135-0.442-2.266-0.882-3.4-1.323"/>
    <path id="path68" fill="#C6C6C6" d="m75.245 45.079c-2.424 0.581-4.848 1.162-7.272 1.742 3.562 2.189 6.49 0.593 10.37-0.337-1.034-0.47-2.065-0.936-3.098-1.405"/>
    <path id="path70" fill="#C6C6C6" d="m83.436 42.837c-2.766-1.861-6.994 0.285-9.877 0.974 2.707 1.925 6.991-0.286 9.877-0.974"/>
    <path id="path72" fill="#C6C6C6" d="m72.802 43.995c-1.063 0.254-6.182 2.215-6.859 1.836 2.309 1.742 6.374-0.333 8.889-0.937-0.663-0.294-1.333-0.698-2.03-0.899"/>
    <path id="path74" fill="#C6C6C6" d="m92.523 45.987c2.83-0.678 5.66-1.359 8.49-2.037-4.973-1.63-7.376-0.843-12.531 0.39 1.351 0.549 2.696 1.098 4.044 1.647"/>
    <path id="path76" fill="#C6C6C6" d="m91.498 40.905c-3.031-1.434-6.511 0.177-9.544 0.9 2.703 1.821 6.725-0.223 9.544-0.9"/>
    <path id="path78" fill="#E5E5E5" d="m78.838 46.649c-2.179 0.5-4.358 1-6.537 1.5 2.769 2.236 6.323 0.396 9.37-0.307-0.935-0.394-1.87-0.873-2.833-1.193"/>
    <path id="path80" fill="#E5E5E5" d="m88.461 43.651c2.202-0.544 4.403-1.089 6.604-1.633-3.386-1.36-5.815-0.263-9.267 0.588 0.867 0.34 1.762 0.827 2.663 1.045"/>
    <path id="path82" fill="#E5E5E5" d="m83.359 47.45c2.563-0.618 5.127-1.237 7.688-1.857-3.913-1.334-6.323-0.36-10.361 0.597 0.863 0.407 1.759 0.983 2.673 1.26"/>
    <path id="path84" fill="#E5E5E5" d="m83.975 42.992c-2.331 0.57-4.66 1.139-6.991 1.708 2.897 2.192 6.79 0.123 9.898-0.635-0.962-0.356-1.924-0.782-2.907-1.073"/>
    <path id="path86" fill="#E5E5E5" d="m75.325 45.062c-2.132 0.516-4.263 1.033-6.394 1.55 2.447 2.021 6.097 0.093 8.768-0.555-0.774-0.327-1.563-0.786-2.374-0.995"/>
    <path id="path88" fill="#E5E5E5" d="m83.183 42.726c-2.62-1.558-6.198 0.246-8.919 0.88 2.378 1.754 6.353-0.28 8.919-0.88"/>
    <path id="path90" fill="#E5E5E5" d="m72.85 43.983c-1.19 0.284-5.482 2.063-6.434 1.602 2.411 1.168 5.479-0.348 8.008-0.936-0.525-0.222-1.049-0.443-1.574-0.666"/>
    <path id="path92" fill="#E5E5E5" d="m92.66 45.192c2.351-0.558 4.701-1.116 7.052-1.675-3.863-1.259-6.117-0.405-10.096 0.54 1.008 0.377 2.012 0.832 3.044 1.135"/>
    <path id="path94" fill="#E5E5E5" d="m90.921 40.687c-2.583-1.084-5.672 0.313-8.229 0.908 2.407 1.319 5.749-0.33 8.229-0.908"/>
    <path id="path96" fill="#5E5D5D" d="m79.479 46.5c-1.457 0.571 2.578 1.871 3.694 1.727-1.23-0.574-2.463-1.153-3.694-1.727"/>
    <path id="path98" fill="#5E5D5D" d="m75.991 44.901c-1.521 0.669 2.036 1.519 3.081 1.405-1.027-0.468-2.055-0.937-3.081-1.405"/>
    <path id="path100" fill="#5E5D5D" d="m82.867 48.593c1.376 0.663 2.545 1.47 4.002 1.427-1.367-0.663-2.541-1.528-4.002-1.427"/>
    <path id="path102" fill="#5E5D5D" d="m75.581 44.711c-0.999-0.505-1.713-0.929-2.778-0.717 0.902 0.678 1.786 0.785 2.778 0.717"/>
    <path id="path104" fill="#5E5D5D" d="m87.302 44.335c1.427-0.722-2.29-1.44-3.399-1.322 1.134 0.441 2.265 0.881 3.399 1.322"/>
    <path id="path106" fill="#5E5D5D" d="m84.184 42.658c-1.062-0.459-1.879-0.866-2.985-0.675 0.97 0.629 1.944 0.746 2.985 0.675"/>
    <path id="path108" fill="#5E5D5D" d="m92.257 46.334c1.467 0.62 2.772 1.389 4.295 1.365-1.469-0.625-2.764-1.4-4.295-1.365"/>
    <path id="path110" fill="#5E5D5D" d="m87.756 44.512c1.542 0.625 3.133 1.658 4.767 1.476-1.546-0.632-3.129-1.671-4.767-1.476"/>
    <path id="path112" fill="#5E5D5D" d="m84.649 42.831c2.46-0.587 4.919-1.175 7.379-1.761-1.722-0.168-7.542 1.323-7.379 1.761"/>
    <path id="path114" fill="#5E5D5D" d="m83.903 43.013c-2.599-0.226-5.725 1.08-8.322 1.699 2.57 0.228 5.731-1.08 8.322-1.699"/>
    <path id="path116" fill="#5E5D5D" d="m74.833 44.894c-2.418 0.58-4.835 1.159-7.254 1.739 1.636 0.177 7.257-1.196 7.254-1.739"/>
    <path id="path118" fill="#5E5D5D" d="m75.581 44.711c-1.054 1.102 0.299-0.312 0 0"/>
    <path id="path120" fill="#5E5D5D" d="m84.649 42.831c-0.452 0.009-0.699-0.238-1.213 0.006 0.494 0.249 0.707 0.003 1.213-0.006"/>
    <path id="path122" fill="#5E5D5D" d="m78.342 46.483c-2.482 0.594-4.967 1.192-7.449 1.785 1.677 0.167 7.417-1.212 7.449-1.785"/>
    <path id="path124" fill="#5E5D5D" d="m88.482 44.34c2.644-0.632 5.289-1.265 7.933-1.897-1.813-0.149-7.982 1.352-7.933 1.897"/>
    <path id="path126" fill="#5E5D5D" d="m79.072 46.307c2.608 0.337 6.05-1.163 8.685-1.795-2.647-0.323-6.038 1.16-8.685 1.795"/>
    <path id="path128" fill="#5E5D5D" d="m79.072 46.307c-0.983 1.081 0.264-0.293 0 0"/>
    <path id="path130" fill="#5E5D5D" d="m87.756 44.512c0.14-0.148 1.108-0.018 0.501-0.263-0.943-0.383-0.749 0.527-0.501 0.263"/>
    <path id="path132" fill="#5E5D5D" d="m83.173 48.227c2.744 0.313 6.315-1.229 9.084-1.893-2.779-0.297-6.301 1.228-9.084 1.893"/>
    <path id="path134" fill="#5E5D5D" d="m92.523 45.987c2.729 0.324 6.246-1.208 8.981-1.866-2.764-0.299-6.222 1.206-8.977 1.866"/>
    <path id="path136" fill="#5E5D5D" d="m82.459 48.4c-2.556 0.613-5.11 1.229-7.666 1.842 1.718 0.174 7.581-1.229 7.666-1.842"/>
    <path id="path138" fill="#5E5D5D" d="m82.459 48.4c0.447 0.006 0.613 0.278 1.115 0.021-0.532-0.329-0.584-0.013-1.115-0.021"/>
    <path id="path140" fill="#5E5D5D" d="m92.257 46.334c0.138-0.149 1.081-0.007 0.485-0.256-0.92-0.383-0.718 0.508-0.485 0.256"/>
    <path id="path142" fill="#B20D0D" d="m96.552 47.699c2.362-0.57 6.649-0.688 8.622-2.02 0.66-0.446-3.928-1.507-4.746-1.347-2.49 0.49-5.162 0.715-7.466 1.839 1.206 0.509 2.403 1.018 3.598 1.528"/>
    <path id="path144" fill="#F44331" d="m96.794 46.351c1.678-0.404 5.621-2.234 7.191-1.835-2.747-1.563-6.544 0.362-9.349 1.041 0.712 0.259 1.43 0.623 2.163 0.794"/>
    <path id="path146" fill="#C6C6C6" d="m84.835 48.006c-0.42 0.138-0.841 0.275-1.261 0.414 4.449 2.16 7.503 0.587 12.288-0.562-3.07-2.777-7.546-0.636-11.027 0.148"/>
    <path id="path148" fill="#E5E5E5" d="m84.835 48.006c2.723 1.957 7.069-0.281 9.94-0.975-2.998-1.54-6.91 0.296-9.94 0.975"/>
    <path id="path150" fill="#76AA04" d="m76.134 50.036c-0.319 0.134-0.64 0.269-0.96 0.402 3.468 2.591 7.199 0.664 11.002-0.25-3.171-2.504-6.433-0.926-10.042-0.152"/>
    <path id="path152" fill="#9CD305" d="m76.134 50.036c2.503 1.93 6.285 0.019 8.98-0.627-2.552-1.95-6.243-0.031-8.98 0.627"/>
    <path id="path154" fill="#5E5D5D" d="m69.962 44.956c-0.775-0.212 0.659 0.161 0.979 0.245-0.397 0.049-0.594-0.139-0.979-0.245"/>
    <path id="path156" fill="#5E5D5D" d="m78.146 43.474c-0.131-0.105 0.276-0.656-0.714-0.338 0.357-0.181 0.741-0.237 1.146-0.166-0.008 0.174-0.078 0.301-0.209 0.383 0.289-0.06 0.574-0.137 0.85-0.137-0.358 0.086-0.716 0.172-1.073 0.258"/>
    <path id="path158" fill="#5E5D5D" d="m86.402 41.416c1.009-0.115 0.459-0.227-0.148-0.207 0.139-0.013 0.26-0.074 0.362-0.178-0.213-0.1-0.606 0.091-0.828 0.101 0.329-0.155 0.681-0.211 1.051-0.165-0.044 0.055-0.089 0.109-0.132 0.163 0.184 0.063 0.375 0.063 0.578 0.003 0.288 0.133-1.205 0.479-0.883 0.283"/>
    <path id="path160" fill="#5E5D5D" d="m73.555 46.624c-0.416-0.067-0.861-0.11-1.293 0.015 0.045-0.168 0.088-0.337 0.133-0.505 0.468 0.034 0.901 0.216 1.368 0.24-0.134 0.129-0.083 0.352-0.208 0.25m-0.422-0.188c-0.781-0.105-0.787-0.105 0 0"/>
    <path id="path162" fill="#5E5D5D" d="m81.42 44.023c-0.169 0.26-1.019-0.117-0.49 0.31 0.375 0.098 0.724-0.212 1.162-0.041 0.263 0.12-1.077 0.748-0.881 0.346 0.292 0.052 0.508-0.04 0.646-0.278-0.669-0.306-0.853 0.217-1.45-0.179 0.276-0.108 0.8-0.082 1.013-0.158"/>
    <path id="path164" fill="#5E5D5D" d="m89.71 41.922c0.19 0.12-0.551-0.318 0.854 0.214-1.402-0.532-0.679 0.175-0.854-0.214m0.619 0.505c0.13-0.043-1.832-0.33 0 0"/>
    <path id="path166" fill="#5E5D5D" d="m76.577 47.635c0.066 0.158 0.576 0.557 0.699 0.748-0.679-0.232-0.96-0.307-1.722-0.506 0.341-0.081 0.683-0.161 1.023-0.242"/>
    <path id="path168" fill="#5E5D5D" d="m84.582 45.603c0.105-0.025 1.31 0.23 1.51 0.325 0.222 0.099-1.669-0.394-1.51-0.325m1.227 0.568c0.221-0.055-1.439-0.469 0 0m-1.105-0.502c-0.196 0.042 1.232 0.408 0 0"/>
    <path id="path170" fill="#5E5D5D" d="m94.259 44.02c0.156 0.111-0.486-0.812-1.055-0.62 1.725-0.652 1.403 0.979 1.055 0.62m-0.922-0.559c0.076 0.321 0.308 0.4 0.695 0.239 0.266-0.384-0.234-0.139-0.695-0.239"/>
    <path id="path172" fill="#5E5D5D" d="m89.549 48.197c-0.841 0.241-1.276 0.03-1.311-0.634 0.822-0.233 1.26-0.021 1.311 0.634m-0.12-0.069c-0.184-0.428-0.54-0.594-1.067-0.5-0.769 0.181 2.68 1.184 1.067 0.5"/>
    <path id="path174" fill="#fff" d="m62.479 114.87c-0.002 1.251 0.153 20.707-0.548 20.668-2.979-0.169-1.547-36.527 0.087-40.39 0.773-1.82 1.005 0.85 0.982 1.27-0.352 6.15-0.513 12.29-0.521 18.45"/>
    <path id="path176" fill="#fff" d="m61.027 72.395c-0.006 0.809 0.112 13.452-0.531 13.423-2.491-0.12-0.884-23.326 0.034-25.816 0.44-1.194 1.084-0.8 1.017 0.171-0.28 4.076-0.49 8.132-0.52 12.222"/>
    <path id="path178" fill="#E5E5E5" d="m134.46 94.533c0 2.881 0.824 8.9-0.562 11.552 0 1.701-3.924 2.981-5.164 3.594-9.631 4.76-19.487 9.117-29.601 12.748-9.552 3.432-19.302 6.346-29.125 8.895-1.746 0.453-4.051 1.562-4.257-1.311-0.343-4.77-0.542-9.558-0.542-14.339 0-4.547 0.194-9.102 0.538-13.636 0.16-2.109 2.473-2.409 4.147-3.022 9.774-3.578 19.587-7.06 29.473-10.313 9.772-3.219 19.631-6.186 29.551-8.915 1.344-0.369 4.98-2.114 4.98 0.8 1.71 2.796 0.56 10.798 0.56 13.953"/>
    <path id="path180" fill="#A0A0A0" d="m101.42 87.576c-9.797 3.181-19.51 6.615-29.189 10.132-1.692 0.614-3.375 1.261-5.076 1.856-2.914-0.056-2.189 9.616-2.234 10.994-0.072 2.272-1.438 22.832 2.877 21.766 9.018-2.232 17.955-4.874 26.753-7.849 10.808-3.651 21.313-8.107 31.585-13.061 2.151-1.037 4.311-2.068 6.42-3.19 2.861 0.124 2.217-9.913 2.25-11.216 0.084-3.544 2.113-19.826-4.11-18.148-9.84 2.644-19.6 5.568-29.28 8.71m-35.277 42.694c-0.64-9.091-0.717-18.184-0.091-27.277 0.294-4.275 9.348-5.534 12.7-6.73 17.656-6.302 35.524-12.444 53.729-16.994 2.991 0.035 1.37 22.829 1.158 25.471-0.378 4.662-11.02 7.433-14.639 9.077-10.971 4.987-22.215 9.214-33.741 12.737-1.693 0.51-19.116 6.68-19.116 3.71"/>
    <path id="path182" fill="#fff" d="m109.51 104.33c0 7.897-6.999 7.899-6.999 0 0-7.9 7-7.9 7 0"/>
    <path id="path184" fill="#A0A0A0" d="m108.88 104.18c0 5.924-5.249 5.924-5.249 0 0.01-5.917 5.25-5.917 5.25 0"/>
    <path id="path186" fill="#fff" d="m108.76 104.27c0 5.129-4.372 5.126-4.372 0-0.01-5.128 4.37-5.129 4.37 0"/>
    <path id="path188" fill="#E5E5E5" d="m107.32 107.75c-1.388-0.253-1.914-5.359-1.001-6.837 0.79-1.268 1 6.05 1 6.84"/>
    <path id="path190" fill="#A0A0A0" d="m106.82 107.75c-1.115-0.982-0.5-4.917-0.5-6.837h0.5v6.84"/>
    <path id="path192" fill="#5E5D5D" d="m38.534 47.97c6.573-1.534 13.144-3.067 19.717-4.6-3.426-3.066-4.088-2.171-8.609-1.089-4.524 1.081-9.047 2.162-13.572 3.244 0.821 0.815 1.643 1.629 2.464 2.445"/>
    <path id="path194" fill="#fff" d="m32.451 31.479c3.196 4.497 4.895 10.17 5.709 15.584 5.24-1.215 10.479-2.429 15.718-3.644 2.081-0.482 2.808-0.011 2.27-2.166-1.114-4.467-2.776-8.892-5.209-12.814-3.228-5.207-8.006-10.486-14.284-9.509-5.549 0.862-11.099 1.724-16.648 2.586 4.779 2.255 9.365 5.632 12.444 9.963"/>
    <path id="path196" fill="#E5E5E5" d="m19.749 21.365c0.232 0.775 3.98 2.329 4.646 2.77 3.027 2.013 5.882 4.424 8 7.403 3.146 4.427 4.976 10.175 5.691 15.539 5.265-1.194 10.53-2.388 15.793-3.583 2.139-0.485 2.84-0.025 2.3-2.27-1.078-4.483-2.761-8.928-5.194-12.855-3.25-5.243-8.043-10.477-14.351-9.531-5.626 0.842-11.255 1.684-16.885 2.527m12.759 10.059c-3.002-4.225-7.688-7.937-12.475-9.987 5.191-0.765 10.385-1.529 15.577-2.294 6.34-0.934 10.122 2.127 14.096 7.599 1.785 2.458 9.646 15.427 4.986 16.482-5.516 1.252-11.032 2.502-16.548 3.752 1.566-0.425-4.941-14.577-5.636-15.552"/>
    <path id="path198" fill="#fff" d="m4.747 74.645c-1.812 3.728-0.49 11.329-0.6 15.372-0.072 2.661-2.211 14.941 1.317 16.242-4.079-1.505-3.158-7.203-3.182-10.59-0.03-3.971-2.079-24.58 3.095-24.58 1.199 0-0.621 3.537-0.63 3.555"/>
    <path id="path200" fill="#fff" d="m18.223 40.658c-1.544 3.255-0.418 9.734-0.509 13.249-0.071 2.721-0.146 5.444-0.278 8.162-0.071 1.414-0.364 2.959 0.061 4.348 0.067 0.217 1.458 2.46 1.391 2.682-0.105 0.352-2.259-1.825-2.419-2.623-0.45-2.243-0.384-4.627-0.4-6.9-0.024-3.511-1.877-22.118 2.708-22.118 1.046-0.001-0.546 3.184-0.554 3.2"/>
    <path id="path202" fill="#fff" d="m113.3 49.504c1.348 2.085 0.441 7.813 0.528 10.196 0.077 2.193 0.154 4.392 0.333 6.581 0.078 0.899-1.544 4.142-1.524 4.191 0.408 0.994 2.464-2.023 2.559-2.596 0.384-2.315 0.277-4.74 0.261-7.076-0.033-3.882-0.12-7.764-0.134-11.648-0.02-1.634-4.45-3.416-2.03 0.352"/>
    <path id="path204" fill="#C6C6C6" d="m28.591 26.893c3.658 3.126 6.208 7.39 7.841 11.876 0.383 1.054 2.824 7.148 1.713 8.207 0.642-0.613-5.227-11.466-5.738-12.369-0.742-1.314-10.812-14.658-12.373-13.17 0.965-0.923 7.794 4.802 8.557 5.456"/>
    <path id="path206" fill="#C6C6C6" d="m47.529 23.623c3.658 3.126 6.208 7.39 7.841 11.876 0.383 1.054 2.824 7.148 1.713 8.206 0.642-0.613-5.227-11.466-5.737-12.368-0.743-1.314-10.812-14.658-12.374-13.17 0.966-0.922 7.794 4.803 8.557 5.456"/>
    <path id="path208" fill="#C6C6C6" d="m40.043 18.49c0-1.314-20.58 1.6-20.58 2.51 0 1.532 20.58-1.575 20.58-2.51"/>
  </g>
  <metadata>
    <rdf:RDF>
      <cc:Work>
        <dc:format>image/svg+xml</dc:format>
        <dc:type rdf:resource="http://purl.org/dc/dcmitype/StillImage"/>
        <cc:license rdf:resource="http://creativecommons.org/licenses/publicdomain/"/>
        <dc:publisher>
          <cc:Agent rdf:about="http://openclipart.org/">
            <dc:title>Openclipart</dc:title>
          </cc:Agent>
        </dc:publisher>
      </cc:Work>
      <cc:License rdf:about="http://creativecommons.org/licenses/publicdomain/">
        <cc:permits rdf:resource="http://creativecommons.org/ns#Reproduction"/>
        <cc:permits rdf:resource="http://creativecommons.org/ns#Distribution"/>
        <cc:permits rdf:resource="http://creativecommons.org/ns#DerivativeWorks"/>
      </cc:License>
    </rdf:RDF>
  </metadata>
</svg>
