<?xml version="1.0"?>
<svg xmlns:rdf="http://www.w3.org/1999/02/22-rdf-syntax-ns#" xmlns="http://www.w3.org/2000/svg" xmlns:cc="http://web.resource.org/cc/" xmlns:xlink="http://www.w3.org/1999/xlink" xmlns:dc="http://purl.org/dc/elements/1.1/" id="Layer_1" xml:space="preserve" overflow="visible" viewBox="0 0 272.41 526.6" version="1.1" enable-background="new 0 0 272.41 526.6">
	<path d="m223.34 21.147c0.815 1.265 2.461 1.7 3.602 2.64-1.006 1.235-2.734 1.747-4.801 1.92-6.524 2.676-14.307 4.093-20.641 6.96-10.562 2.719-20.66 5.898-30.479 9.36-18.54 4.581-34.942 11.298-53.041 16.32-18.822 7.018-39.279 12.4-58.32 19.2-5.392 1.328-10.816 2.624-15.12 5.04-7.454-5.106-14.49-10.63-23.52-14.16 1.197 1.443 3.22 2.06 5.28 2.64 1.273 1.688 4.188 1.733 5.28 3.6 4.702 2.018 8.043 5.397 12.24 7.92-4.591 3.249-8.984 6.696-10.32 13.2-1.282 1.118-0.777 4.023-1.92 5.28-0.049 0.751 0.162 1.762-0.24 2.16-8.761-6.039-18.285-11.315-25.2-19.2 5.127-14.553 19.375-19.984 35.28-23.76 14.317-5.442 30.041-9.479 44.4-14.88 14.733-3.992 28.927-8.206 43.68-12.72 6.253-1.914 12.505-4.338 18.72-6.24 1.519-0.464 3.093-0.462 4.561-0.96 11.028-3.742 21.842-7.767 33.12-10.8 8.427-3.174 17.158-6.042 26.16-8.64 3.644-1.396 7.135-2.944 11.521-3.6 2.797-1.71 8.162-1.811 11.279-0.72 3.742 0.338 6.703 1.457 8.641 3.6 5.037 2.723 9.875 5.645 13.92 9.36-9.961 2.759-19.385 6.055-28.801 9.36-2.02-0.705-3.21-2.233-5.28-2.883zm-10.56-10.8c-11.104 2.562-23.387 8.53-34.32 11.04-2.008 2.071-5.859 2.299-7.199 5.04-0.885 4.173 1.683 5.666 5.039 6.24 14.643-4.559 29.068-9.333 43.921-13.68 2.297-1.482 1.653-5.121 0.721-7.68-2.58-1.38-4.98-1.694-8.16-0.96zm-62.4 21.84c-5.473-1.362-15.417 2.219-17.521 5.04 0.202 0.725-0.379 1.452-0.24 2.16 0.124 0.631 1.81 2.39 2.4 2.64 4.351 1.848 12.946-0.996 16.319-2.16 0.504-1.176 1.629-1.732 2.4-2.64 0.7-3.104-1.57-4.595-3.36-5.04zm-31.44 9.84c-7.081 0.754-14.847 3.998-21.6 5.52-2.218 3.717 1.985 5.793 6 5.52 6.689-1.871 12.783-4.338 19.92-5.76 0.85-1.15 2.467-1.533 2.16-3.84-1.63-2.024-4.18-1.686-6.48-1.44z" fill="#DCDDDE"/>
	<path d="m220.22 13.467c-2.213 2.9-6.264 3.16-9.6 4.32-5.69 1.979-11.521 4.502-17.521 5.76-2.728 1.434-6.36 1.96-9.12 3.36-2.385 0.305-3.68-0.481-5.521-0.72 0.076-1.036-0.908-1.011-0.72-2.16 0.606-1.713 2.897-1.743 4.32-2.64 5.481-1.157 9.771-3.509 15.358-4.56 2.871-1.814 8.045-2.651 12.48-4.32 2.475-0.931 5.846-2.457 8.88-1.2 0.39 0.161 0.906 1.041 1.438 1.44v0.72z" fill="#DCDDDE"/>
	<path d="m176.78 24.267c-0.367 3.487 1.336 4.904 4.32 5.04-2.153 2.459-8.777 3.046-9.12-0.72-0.13-1.374 2.54-5.205 4.8-4.32z" fill="#fff"/>
	<path d="m183.26 27.867c0.248 0.807-0.745 0.374-1.198 0.48-0.25-0.806 0.74-0.374 1.2-0.48z" fill="#fff"/>
	<path d="m153.74 37.227c-0.772 0.907-1.896 1.464-2.399 2.64-3.373 1.165-11.969 4.008-16.32 2.16-0.59-0.25-2.276-2.009-2.4-2.64-0.139-0.708 0.442-1.435 0.24-2.16 2.102-2.821 12.047-6.402 17.52-5.04 1.79 0.445 4.06 1.936 3.36 5.04zm-0.96-0.72c0.165-0.607-0.135-1.346 0-1.68-1.045-1.275-3.275-1.364-5.039-1.92-5.416 1.305-12.357 1.084-14.161 6 2.13 5.096 18.13 1.546 19.2-2.4z"/>
	<path d="m133.58 38.907c1.804-4.916 8.745-4.695 14.16-6 1.765 0.556 3.995 0.645 5.04 1.92-0.135 0.334 0.165 1.073 0 1.68-1.07 3.946-17.07 7.496-19.2 2.4zm17.76-4.08c-5.773-1.7-12.969-0.079-16.319 2.88-0.4 2.8 2.596 2.205 4.319 2.88-1.008-0.93-1.359-5.069 0.721-5.04 0.393 1.777-0.77 4.652 0.48 5.04 0.156-1.059-0.104-3.287 0-5.04 3.002-0.621 9.48-3.229 8.16 2.88-1.994 1.208-5.445 0.956-7.441 2.16 4.209-0.911 9.371-0.869 10.801-4.56-0.41-0.231-0.53-0.754-0.72-1.2z" fill="#fff"/>
	<path d="m149.42 34.827c0.578-0.098 0.521 0.438 1.201 0.24v2.64c-0.565-0.005-0.707 0.414-1.44 0.24 0.1-1.023-0.23-2.472 0.24-3.12z" fill="#fff"/>
	<path d="m137.18 36.507h1.199c-0.154 1.045 0.313 2.713-0.239 3.36h-0.479c-1.05-0.235-0.22-2.346-0.48-3.36z" fill="#fff"/>
	<path d="m135.74 39.387c-0.331-0.309-0.238-1.042-0.24-1.68 0.95 0.31 0.49-0.79 1.44-0.479v1.92c-0.58-0.1-0.52 0.437-1.2 0.239z" fill="#fff"/>
	<path d="m117.74 43.227c1.045 0.235 0.214 2.346 0.48 3.36-4.833 1.087-8.798 3.042-13.92 3.84v-2.88c4.55-1.371 9.28-2.554 13.44-4.32z" fill="#fff"/>
	<path d="m119.66 43.227h0.72c-0.152 0.808 0.31 2.229-0.24 2.64-1.01-0.03-0.24-1.842-0.48-2.64z" fill="#fff"/>
	<path d="m121.1 43.227c1.061-0.021 1.484 0.596 2.16 0.96 0.015 1.214-1.551 0.849-1.92 1.68-1.1-0.465-0.63-1.777-0.24-2.64z" fill="#fff"/>
	<path d="m118.94 43.707c0.545 0.255 0.091 1.509 0.24 2.16-0.361 0.423-0.149-1.757-0.72-1.92 0.28 0.039 0.43-0.053 0.48-0.24z" fill="#fff"/>
	<path d="m102.86 48.027h0.72c0.293 1.03 0.42 2.178-0.24 2.88-1.03-0.096-0.23-2.011-0.48-2.88z" fill="#fff"/>
	<path d="m100.94 48.747c0.842-0.186 0.559 1.979 0.24 2.16-0.92 0.112-0.46-1.875-0.24-2.16z" fill="#fff"/>
	<path d="m101.66 48.747c1.138-0.206 0.933 2.304 0 2.16v-2.16z" fill="#fff"/>
	<path d="m98.779 50.187c0.014-0.866 0.48-1.279 1.44-1.2v1.44c-0.736 0.174-0.707-0.414-1.441-0.24z" fill="#fff"/>
	<path d="m243.5 54.027c0.793 0.769 0.793 4.751 0 5.52 0.08-2.397-0.36-3.788 0-5.52z"/>
	<path d="m159.5 61.947c0.278-0.039 0.426 0.053 0.479 0.24-0.317 5.203 0.635 11.675-0.479 16.08v-16.32z"/>
	<path d="m157.34 62.667h0.722c-0.16 6.64 0.319 13.919-0.24 20.16-1.014-3.743-0.457-10.96 0-13.44-0.99-2.809 0.24-3.65-0.48-6.72z"/>
	<path d="m153.02 65.547c0.797 2.416 0.797 8.144 0 10.56v-10.56z"/>
	<path d="m151.34 80.667c-1.221-3.571-0.086-11.145-0.238-13.68 0.295-0.268 0.492-0.209 0.479 0.24-0.16 4.4 0.32 9.44-0.24 13.44z"/>
	<path d="m149.42 68.187c0.279-0.039 0.429 0.053 0.48 0.24v21.6c-1.107-6.027-0.17-14.163-0.48-21.12v-0.72z"/>
	<path d="m147.74 70.587c0.558 5.043 0.082 13.197 0.24 19.44-0.56-5.044-0.08-13.198-0.24-19.44z"/>
	<path d="m145.58 76.347h0.719v8.4c-1.56-1.761-0.22-6.162-0.72-8.4z"/>
	<path d="m268.22 78.987c0.279-0.039 0.428 0.053 0.48 0.24-0.318 35.355 0.637 72.111-0.48 107.04v-107.28z"/>
	<path d="m93.739 81.867c1.109 2.491 0.167 7.032 0.48 10.32-0.975-2.648-0.386-8.241-0.48-10.32z"/>
	<path d="m91.579 82.587c0.279-0.039 0.427 0.053 0.48 0.24v19.68c-1.105-5.387-0.171-12.888-0.48-19.2v-0.723z"/>
	<path d="m89.898 83.787c0.557 5.124 0.083 13.358 0.24 19.68 0.077 0.294-0.039 1.482-0.24 0.72v-1.44c0.205-0.765-0.209-0.911-0.48-1.2 0.945-4.65 0.258-11.294 0.48-17.763z"/>
	<path d="m31.338 103.95c-1.151 1.685-2.581-1.654-4.32-1.68 0.843 1.478 2.926 1.714 3.84 3.12-1.825 9.996-1.44 21.53-1.44 34.08 0 54.56 0.332 111.09-0.24 160.32-0.624 53.753 0 109.55 0 164.4 0 7.831-0.653 15.891 0 23.52 0.974 11.376 6.185 19.976 11.52 27.12-5.487-1.677-10.136-4.72-14.88-7.199-4.785-2.501-9.312-5.21-14.16-7.681-1.862-1.338-2.835-3.564-4.8-4.8-2.597-5.361-4.653-10.053-5.28-16.561-0.718-7.453 0-15.725 0-23.761 0-50.466-0.417-101.51 0.24-152.64 0.432-33.601 0.674-73.555 0.48-109.44-0.136-25.14-0.301-53.311 0.24-81.84 0.031-1.618 0.439-3.093 0.48-4.56 0.035-1.252-0.542-2.491-0.48-3.6 0.245-4.399 1.139-13.522 3.36-17.76 1.708 1.083 4.188 3.723 6.48 5.52 5.83 4.568 12.631 9.073 18.96 13.44z" fill="#DCDDDE"/>
	<path d="m239.18 89.787c0.993-0.034 0.25 1.67 0.479 2.4-0.99 0.034-0.25-1.67-0.48-2.4z" fill="#fff"/>
	<path d="m239.18 94.587c0.868-0.228 0.335 0.945 0.479 1.44-0.87 0.227-0.34-0.945-0.48-1.44z" fill="#fff"/>
	<path d="m239.18 96.747c0.737-0.367 0.737 1.567 0 1.2v-1.2z" fill="#fff"/>
	<path d="m43.099 138.75h0.72c-0.344 49.927-0.225 105.13-0.24 159.6-1.12-51.488-0.158-107.73-0.48-158.88v-0.72z"/>
	<path d="m255.98 151.71c0.278-0.039 0.427 0.053 0.479 0.24-0.314 7.987 0.629 17.402-0.479 24.96-0.03-8.54 0.01-16.32 0-25.2z"/>
	<path d="m262.22 154.59c0.52 0.28-0.032 1.632 0.721 1.68-1.037 2.403-0.221 6.659-0.48 9.84v6.24c-0.33 0.764-0.236-0.848-0.24-1.2v-16.56z"/>
	<path d="m258.14 155.07c0.279-0.039 0.428 0.053 0.48 0.24v35.52c-1.229-9.826-0.104-22.991-0.48-35.04v-0.72z"/>
	<path d="m260.06 158.19c0.549 6.664 0.088 16.729 0.239 24.72-0.55-6.67-0.09-16.73-0.24-24.72z"/>
	<path d="m264.38 162.03c0.553 2.488 0.086 8.074 0.24 11.76-0.55-2.49-0.09-8.08-0.24-11.76z"/>
	<path d="m266.06 169.71c1.114 3.925 0.164 9.916 0.479 14.64-0.906-0.188-0.707-1.493-0.721-2.16-0.07-3.53 0.5-8.56 0.24-12.48z"/>
	<path d="m268.22 187.71c1.054 0.307 0.209 2.511 0.48 3.6-1.13-0.76-0.33-2.12-0.48-3.6z"/>
	<path d="m267.98 192.27c1.521 0.746-0.087 1.785 0.72 3.36-1.11-0.25-0.6-2.13-0.72-3.36z"/>
	<path d="m268.22 195.87h0.48v1.92h-0.48v-1.92z"/>
	<path d="m48.858 208.59h0.72c-0.269 1.922 0.344 3.862-0.72 4.56-0.3-2.28 0.751-3.05 0-4.56z"/>
	<path d="m267.98 208.59c0.192 0.127 0.39 0.25 0.72 0.24 0.348 0.908-0.658 0.461-0.48 1.2-0.53-0.03-0.1-1.02-0.24-1.44z"/>
	<path d="m48.858 215.31h0.72c-0.4 12.755-0.105 24.202-0.24 36.72-1.11-10.997-0.167-24.078-0.48-36v-0.72z"/>
	<path d="m267.98 222.75c0.608 13.211 0.058 29.056 0.239 44.641v138.96c0.175 0.868-0.414 0.868-0.239 0v-183.6z"/>
	<path d="m216.86 240.03c1.206 1.491 0.824 6.632 0 8.4v-8.4z"/>
	<path d="m216.86 249.15c0.279-0.039 0.428 0.053 0.479 0.24 0.08 7.382 0 14.49 0 22.799 0 2.209-0.784 5.342 1.44 6.24 0.872-6.98-0.549-16.552 0.72-23.521 0.156 8.084-0.313 16.795 0.24 24.479 14.854 10.906 24.321 27.198 27.84 49.439 0.166 2.395-0.076 5.196 0.721 6.96 1.148 32.771-10.397 56.359-24.239 76.08-5.06 7.206-11.117 13.709-17.761 19.2-3.457 2.855-6.596 5.916-10.08 8.399-3.678 2.62-7.68 4.479-11.76 6.72-1.457 0.802-2.735 1.953-4.32 2.641-6.146 2.665-12.865 4.366-18.96 6.479-3.228 0.212-6.054 0.826-8.88 1.439-4.977-0.26-9.799 0.514-14.641 0-11.032-1.17-20.333-5.128-28.08-9.359-0.56 4.562-0.08 10.159-0.24 15.12-0.866-2.033-0.479-5.521-0.479-8.641 0-3.042 0.863-6.747-1.2-7.92-1.436 6.164 0.476 15.676-0.96 21.84v-18.72c0-1.825 0.528-4.172-1.2-5.04-0.785 8.717-0.528 19.452-0.48 27.359 0.007 1.128 0.83 2.831-0.48 3.601v-25.2c0-2.503 0.859-5.812-1.2-7.199-0.833 12.48-0.443 27.506-0.48 40.319-0.005 1.701 0.599 3.671-0.48 5.04v-42.24c0-1.498 0.707-4.146-1.2-4.8-1.109 9.233-0.168 20.558-0.48 30.721-1.109-9.542-0.168-21.213-0.48-31.681-0.354-0.688-1.222-0.857-1.44-1.681-0.56 5.761-0.081 12.561-0.24 18.721-1.105-5.302-0.171-12.733-0.48-18.96-2.692-3.775-6.123-7.01-8.64-10.801-1.271-1.915-2.001-4.193-3.12-6.479-1.026-2.096-2.558-4.073-3.36-6.239-2.31-6.231-4.122-13.938-5.04-21.12-1.162-9.091-0.552-18.324 0.72-27.12 2.753-19.042 10.547-33.71 18-47.521 2.351-2.129 3.887-5.073 5.52-7.92 2.172-2.229 4.416-4.384 6-7.2 15.25-16.109 32.62-30.1 59.04-35.04 0.777 0.297 0.184-0.776 0.96-0.479 12.827-1.75 26.841-0.941 37.921 3.601 2.703 1.108 3.173 1.389 6 2.88 1.641 0.866 0.96-2.006 0.96-4.561v-13.199c-0.188-1.071 0.368-1.628 0.239-0.24v10.32c0.477 2.964-1.137 8.018 1.199 9.119 0.562-8.239 0.08-17.52 0.24-26.159 0.93 5.118 0.479 13.689 0.479 21.12 0 2.029-0.953 5.514 1.44 6 0.56-8.8 0.08-18.64 0.24-27.84zm2.16 30.72c-9.73-6.388-23.122-12.203-38.4-11.28-3.594-0.152-6.675 0.206-10.08 0.24-0.894 0.785-2.781 0.579-4.32 0.721-3.752 0.807-6.86 2.258-10.799 2.881-7.262 2.817-14.082 6.078-20.641 9.6-0.695 1.146-1.814 1.865-3.36 2.16-4.117 3.643-9.1 6.42-12.72 10.56-0.325 0.076-0.458 0.342-0.96 0.239-2.859 3.222-5.487 6.675-8.88 9.361-0.806 1.834-2.119 3.16-3.6 4.318 0.098 0.579-0.438 0.522-0.24 1.2-2.248 1.201-3.103 3.92-4.32 5.76-1.21 1.831-3.024 3.459-4.08 5.28-0.238 0.411-0.022 1.014-0.24 1.439-0.423 0.828-1.476 1.362-1.92 2.16-1.241 2.229-2.024 4.833-3.12 7.199-1.034-0.314-0.297 1.143-1.2 0.96-4.235 10.99-9.03 22.138-10.8 35.761-0.931 7.169-0.94 13.588-0.72 21.601 0.021 0.378 0.612 0.188 0.48 0.72 1.007 13.521 4.435 24.749 10.08 33.36 0.916 1.396 1.48 2.367 2.16 3.359 0.24 0.351 0.018 0.819 0.24 1.199 0.351 0.603 1.457 1.186 1.92 1.921 1.094 1.736 2.407 2.942 3.6 4.319 1.521 1.757 2.846 3.772 4.56 5.279 0.253 0.224 0.906 0.033 1.2 0.24 0.412 0.289 0.526 1.104 0.96 1.439 1.114 0.862 2.208 1.244 3.12 1.92 0.524 0.389 1.071 0.542 1.68 0.96 1.054 0.724 2.023 2.008 3.12 2.641 1.265 0.73 2.973 0.872 4.32 1.681 0.454 0.271 0.508 0.979 0.96 1.199 0.45 0.221 1.283-0.011 1.92 0.24 0.542 0.213 0.94 0.994 1.44 1.199 1.382 0.568 3.182 0.52 4.56 0.96 0.979 0.312 1.73 0.972 2.64 1.2 7.837 1.97 17.27 1.916 27.12 1.439 0.895-0.786 2.781-0.578 4.32-0.72 0.585-0.694 1.916-0.644 3.119-0.721 8.479-2.194 16.279-5.629 22.801-9.12 3.014-1.613 5.012-2.6 7.439-4.319 0.304-0.216 0.93-0.587 1.199-0.721 1.53-0.755 1.873-1.193 3.12-2.159 2.841-2.201 5.851-4.296 8.16-6.48 0.404-0.383 1.103-0.408 1.438-0.72 0.357-0.33 0.347-1.061 0.722-1.439 0.163-0.165 0.788-0.104 0.96-0.24 1.277-1.025 2.861-2.861 4.318-4.319 1.473-1.472 3.203-3.048 4.32-4.319 0.274-0.312-0.016-0.82 0.24-1.2 0.799-1.188 2.568-2.179 3.6-3.359 1.133-1.298 1.658-2.144 2.4-3.359 2.038-3.342 4.57-6.451 6.721-9.601 0.553-0.811 0.494-1.873 0.959-2.641 0.256-0.421 0.971-0.549 1.2-0.96 0.478-0.853 0.532-2.061 0.96-2.88 1.049-2.013 2.569-3.562 3.36-5.521 0.19-0.476 0.046-1.188 0.239-1.681 0.979-2.486 2.502-4.382 3.359-6.479 0.512-1.254 0.477-2.7 0.961-4.08 1.43-4.073 3.182-7.824 3.6-12.479 2.605-6.733 2.367-15.655 3.359-23.521-0.838-0.913 0.166-0.758 0-2.16-0.89-2.31-0.39-6.011-0.72-8.88-2.896-22.863-12.526-38.994-26.642-50.641-0.818-0.18-0.305 0.977-1.198 0.721v-1.44z"/>
	<path d="m210.86 259.95c0.191 0.127 0.391 0.25 0.721 0.24-0.82 1.93-0.263 7.531-0.479 11.759 0.009-0.187-0.009 2.916-0.24 0.721-0.344-3.258 0.236-5.895 0-12v-0.72z"/>
	<path d="m219.02 281.31c0.895 0.254 0.38-0.9 1.199-0.722 14.113 11.646 23.744 27.776 26.641 50.641 0.33 2.869-0.17 6.57 0.721 8.881 0.164 1.401-0.838 1.246 0 2.159-0.992 7.864-0.754 16.786-3.36 23.521-0.417 4.655-2.171 8.406-3.601 12.479-0.484 1.381-0.447 2.826-0.959 4.08-0.857 2.099-2.381 3.993-3.361 6.479-0.192 0.491-0.047 1.205-0.238 1.681-0.791 1.957-2.312 3.508-3.359 5.521-0.429 0.819-0.482 2.027-0.961 2.88-0.23 0.411-0.943 0.539-1.199 0.96-0.465 0.768-0.408 1.83-0.961 2.641-2.147 3.148-4.682 6.259-6.72 9.601-0.741 1.217-1.269 2.062-2.399 3.359-1.031 1.183-2.801 2.172-3.601 3.359-0.256 0.38 0.034 0.888-0.239 1.2-1.119 1.271-2.85 2.849-4.32 4.319-1.459 1.458-3.043 3.294-4.319 4.319-0.172 0.138-0.797 0.075-0.96 0.24-0.375 0.38-0.363 1.109-0.721 1.439-0.338 0.312-1.035 0.337-1.439 0.721-2.311 2.185-5.318 4.278-8.16 6.479-1.248 0.966-1.59 1.404-3.119 2.159-0.271 0.134-0.896 0.505-1.201 0.721-2.428 1.722-4.426 2.706-7.438 4.319-6.521 3.491-14.321 6.926-22.801 9.12-1.203 0.077-2.534 0.025-3.119 0.721-1.539 0.142-3.427-0.066-4.319 0.72-9.852 0.477-19.284 0.529-27.121-1.439-0.91-0.229-1.661-0.888-2.64-1.2-1.378-0.44-3.178-0.392-4.56-0.96-0.5-0.205-0.897-0.986-1.44-1.199-0.637-0.251-1.47-0.021-1.92-0.24-0.452-0.221-0.506-0.928-0.96-1.199-1.347-0.809-3.055-0.949-4.32-1.681-1.097-0.633-2.066-1.917-3.12-2.641-0.609-0.418-1.156-0.571-1.68-0.96-0.912-0.676-2.006-1.058-3.12-1.92-0.434-0.336-0.548-1.15-0.96-1.439-0.294-0.207-0.946-0.018-1.2-0.239-1.714-1.508-3.039-3.523-4.56-5.28-1.193-1.377-2.506-2.583-3.6-4.319-0.463-0.734-1.569-1.318-1.92-1.921-0.222-0.38 0-0.85-0.24-1.199-0.68-0.992-1.244-1.963-2.16-3.359-5.646-8.611-9.073-19.839-10.08-33.36 0.132-0.532-0.458-0.342-0.48-0.72-0.221-8.013-0.211-14.432 0.72-21.601 1.77-13.623 6.565-24.771 10.8-35.761 0.903 0.183 0.166-1.274 1.2-0.96 1.096-2.366 1.879-4.971 3.12-7.199 0.444-0.798 1.497-1.332 1.92-2.16 0.218-0.427 0.002-1.028 0.24-1.439 1.056-1.821 2.87-3.449 4.08-5.28 1.217-1.84 2.072-4.559 4.32-5.76-0.198-0.678 0.338-0.621 0.24-1.2 1.481-1.158 2.794-2.483 3.6-4.319 3.393-2.687 6.021-6.14 8.88-9.359 0.501 0.102 0.635-0.164 0.96-0.24 3.62-4.141 8.603-6.917 12.72-10.561 1.546-0.293 2.666-1.015 3.36-2.159 6.56-3.521 13.38-6.781 20.64-9.601 3.938-0.621 7.049-2.072 10.801-2.88 1.539-0.142 3.427 0.065 4.32-0.721 3.404-0.034 6.485-0.394 10.08-0.24 15.277-0.923 28.668 4.894 38.399 11.28v1.44zm-50.88 47.52c-4.025 0.447-5.77 0.718-9.359 1.681-15.164 8.036-26.637 19.764-26.64 42.96 2.479 14.081 10.144 22.977 26.399 23.279 0.379-0.021 0.188-0.612 0.721-0.479 4.928 0.39 8.017-1.659 10.801-2.88 1.471-0.646 3.003-0.992 4.079-1.681 3.202-2.047 5.329-4.368 7.921-6.96 1.645-1.645 3.652-3.047 4.8-4.561 0.292-0.386 0.324-1.309 0.72-1.92 4.537-7.021 8.824-16.544 7.2-28.8-2.56-12.25-12.43-22.22-26.64-20.64z" fill="#DCDDDE"/>
	<path d="m194.78 349.47c1.624 12.256-2.664 21.779-7.199 28.8-0.396 0.611-0.429 1.534-0.721 1.921-1.146 1.513-3.156 2.915-4.8 4.56-2.593 2.592-4.72 4.913-7.921 6.96-1.076 0.688-2.608 1.035-4.079 1.681-2.784 1.221-5.873 3.27-10.802 2.88-0.531-0.133-0.34 0.458-0.719 0.479-16.256-0.304-23.921-9.198-26.4-23.279 0.003-23.196 11.477-34.924 26.64-42.96 3.591-0.963 5.334-1.232 9.359-1.681 14.21-1.58 24.08 8.39 26.64 20.64zm-29.28-19.68c-4.184 1.178-7.859 2.859-11.761 4.32-1.581 1.776-3.517 3.203-5.76 4.319-5.681 5.999-11.24 12.12-13.2 21.84-1.57 4.053-1.688 10.215-1.2 15.601 3.035 12.726 11.674 20.854 28.081 19.439 0.592-0.825 2.278-0.439 3.359-0.72 1.665-0.432 2.812-1.445 4.08-1.921 0.492-0.185 1.033-0.048 1.439-0.239 1.821-0.861 2.621-1.992 3.84-2.641 1.104-0.588 1.309-0.958 2.16-1.439 2.834-1.604 5.809-4.726 7.68-6.96 0.615-0.734 0.877-1.688 1.439-2.399 0.303-0.382 0.955-0.356 1.2-0.721 0.259-0.386-0.022-0.992 0.24-1.439 0.21-0.356 0.952-0.55 1.198-0.96 1.134-1.883 1.688-3.95 2.4-5.76 0.274-0.694 0.999-1.155 1.2-1.681 1.785-4.665 1.993-10.602 2.16-16.801-0.022-0.378-0.612-0.188-0.479-0.72-0.558-3.562-0.863-6.109-2.4-9.12-1.062-2.085-3.233-3.62-4.319-5.04-0.327-0.427-0.165-0.891-0.479-1.199-0.864-0.849-2.719-1.48-4.319-2.399-1.013-0.58-1.575-1.562-2.399-1.921-1.662-0.722-3.402-0.812-5.281-0.96-2.3-1.36-5.66-0.22-8.88-0.48z"/>
	<path d="m174.38 330.27c1.877 0.146 3.617 0.238 5.279 0.96 0.825 0.357 1.389 1.341 2.4 1.921 1.602 0.919 3.455 1.552 4.318 2.399 0.315 0.31 0.153 0.772 0.48 1.199 1.086 1.42 3.256 2.955 4.318 5.04 1.537 3.011 1.845 5.56 2.4 9.12-0.132 0.532 0.459 0.342 0.48 0.72-0.167 6.199-0.375 12.136-2.16 16.801-0.201 0.524-0.926 0.985-1.2 1.681-0.714 1.81-1.269 3.877-2.399 5.76-0.246 0.41-0.989 0.604-1.199 0.96-0.264 0.447 0.02 1.055-0.24 1.439-0.245 0.363-0.898 0.339-1.199 0.721-0.564 0.713-0.824 1.665-1.441 2.399-1.87 2.234-4.846 5.356-7.68 6.96-0.852 0.481-1.056 0.853-2.16 1.439-1.217 0.647-2.018 1.778-3.84 2.641-0.404 0.191-0.947 0.056-1.438 0.239-1.269 0.476-2.415 1.489-4.08 1.921-1.081 0.279-2.769-0.105-3.36 0.72-16.404 1.413-25.045-6.715-28.08-19.439-0.487-5.386-0.37-11.548 1.2-15.601 1.96-9.72 7.519-15.841 13.2-21.84 2.243-1.116 4.178-2.543 5.76-4.319 3.9-1.461 7.577-3.144 11.76-4.32 3.22 0.26 6.58-0.88 8.88 0.48z" fill="#fff"/>
	<path d="m267.98 408.27c0.399 1.844 0.399 5.357 0 7.2-0.79-1.88 0.06-3.4 0-7.2z"/>
	<path d="m268.7 430.35c0.666-0.415-0.299 2.852 0.721 2.88 0.18 0.739-0.828 0.292-0.479 1.2-0.56-0.89-0.08-2.8-0.24-4.08z"/>
	<path d="m268.7 436.83c0.53 0.354 0.102 3.733 0.24 5.28-0.53-0.36-0.1-3.74-0.24-5.28z"/>
	<path d="m270.14 23.547c0.604 2.596 1.515 4.886 2.16 7.44 0.248 40.192 0 75.961 0 124.32v121.2c0 5.515-0.027 10.998 0 16.319-0.041 3.652 0.056 6.902 0 10.08-0.174 9.857-0.092 14.593-0.479 22.319-0.957 19.079 0 39.952 0 60.479v30.24c0 12.656 1.302 26.357-0.96 36.72-1.4 6.416-5.258 10.498-9.602 14.4-1.088 0.271-1.928 0.792-2.639 1.439-31.459 9.343-62.842 18.757-93.601 28.8-15.12 4.589-30.574 9.642-46.32 14.88-7.435 2.475-15.363 4.756-23.28 7.2-3.739 1.155-7.834 2.345-11.76 3.601-3.902 1.248-7.879 3.128-11.52 3.601-0.23 0.029-0.488-0.002-0.72 0-12.796 0.081-23.545-6.18-33.36-11.04-0.902-0.447-1.502-1.088-2.4-1.439-0.88-0.347-1.938-0.323-2.88-0.721-1.637-0.688-2.938-2.212-4.32-3.12-2.704-1.774-5.821-2.956-8.64-4.561-2.825-1.607-5.546-3.418-8.64-4.56-1.706-1.734-2.998-3.884-5.04-5.28-2.892-5.603-5.094-11.318-5.76-18.72-0.851-9.459 0-20.089 0-30.24 0-44.173 0.108-94.34 0.72-134.4 0.268-17.544 0-35.535 0-52.8 0-15.984-0.31-35.385 0.48-48.48-0.631-1.687-0.804-5.308 0-6.96-0.533-1.508-0.413-1.716 0-3.84-0.509-1.498 0.082-1.878-0.48-2.64 0.833-5.043 0.298-11.474 0.48-17.52 0.633-21.009 0.078-40.48 0-58.32-0.037-8.358-0.518-17.338 0.24-25.2 0.844-8.758 4.244-15.483 7.92-21.84 5.996-6.244 13.264-11.216 23.52-13.2 27.242-9.318 54.881-18.238 83.52-26.16 13.406-4.526 27.542-8.945 41.521-13.44 13.479-4.334 27.93-8.589 41.521-13.44 6.876-2.455 13.563-4.567 20.64-6.72 5.182-1.576 9.047-2.618 15.602-1.44 2.005 0.361 4.24 1.062 5.76 1.92 7.188 4.059 14.801 10.386 22.08 15.12 0.812 0.529 1.536 0.45 2.16 0.96 1.54 1.261 2.42 3.396 4.08 5.037zm-257.76 66.96c-2.292-1.797-4.772-4.437-6.48-5.52-2.221 4.237-3.115 13.36-3.36 17.76-0.062 1.109 0.515 2.348 0.48 3.6-0.041 1.467-0.449 2.942-0.48 4.56-0.542 28.53-0.376 56.7-0.24 81.84 0.194 35.886-0.048 75.84-0.48 109.44-0.657 51.128-0.24 102.18-0.24 152.64 0 8.036-0.718 16.308 0 23.761 0.627 6.508 2.683 11.198 5.28 16.561 1.965 1.234 2.938 3.462 4.8 4.8 4.848 2.471 9.375 5.18 14.16 7.681 4.744 2.479 9.393 5.522 14.88 7.199-5.335-7.146-10.546-15.744-11.52-27.12-0.653-7.629 0-15.688 0-23.52 0-54.849-0.624-110.65 0-164.4 0.571-49.232 0.24-105.76 0.24-160.32 0-12.55-0.385-24.084 1.44-34.08-0.914-1.406-2.997-1.643-3.84-3.12 1.739 0.026 3.168 3.365 4.32 1.68-6.329-4.367-13.13-8.872-18.96-13.443zm216.24-66.48c9.416-3.305 18.84-6.601 28.801-9.36-4.045-3.715-8.883-6.637-13.92-9.36-1.938-2.143-4.897-3.262-8.641-3.6-3.117-1.091-8.482-0.99-11.279 0.72-4.386 0.656-7.877 2.204-11.521 3.6-9.002 2.599-17.733 5.466-26.16 8.64-11.278 3.033-22.092 7.058-33.12 10.8-1.468 0.498-3.042 0.496-4.561 0.96-6.215 1.902-12.467 4.327-18.72 6.24-14.753 4.514-28.947 8.728-43.68 12.72-14.359 5.401-30.083 9.438-44.4 14.88-15.904 3.776-30.153 9.208-35.28 23.76 6.915 7.885 16.438 13.161 25.2 19.2 0.402-0.398 0.191-1.409 0.24-2.16 1.143-1.257 0.638-4.163 1.92-5.28 1.336-6.504 5.729-9.951 10.32-13.2-4.197-2.523-7.539-5.902-12.24-7.92-1.093-1.867-4.007-1.913-5.28-3.6-2.06-0.58-4.083-1.197-5.28-2.64 9.03 3.53 16.066 9.054 23.52 14.16 4.304-2.416 9.728-3.712 15.12-5.04 19.041-6.8 39.498-12.182 58.32-19.2 18.098-5.022 34.5-11.739 53.041-16.32 9.818-3.461 19.918-6.641 30.479-9.36 6.334-2.867 14.115-4.285 20.641-6.96 2.066-0.173 3.795-0.685 4.801-1.92-1.141-0.94-2.785-1.375-3.602-2.64 2.07 0.647 3.26 2.175 5.28 2.877zm-0.48 0.96c-13.719 4.521-27.428 9.052-41.76 12.96-10.684 4.117-23.108 6.491-33.601 10.8-10.134 2.586-18.958 6.483-29.28 8.88-0.097 0.863-1.546 0.373-1.68 1.2-25.496 7.705-50.272 16.128-75.84 23.76-0.333 0.147-0.036 0.924-0.48 0.96-8.479 2.641-11.486 10.754-13.2 20.16 2.932 2.588 7.092 3.948 11.28 5.28-4.84-0.44-7.827-2.732-11.28-4.56 0.378 3.282 5.629 3.607 7.92 5.76 2.087-0.167 2.812 1.027 4.8 0.96 0.73-1.732-0.533-1.334-1.2-2.16 1.217 0.178 1.895-0.185 2.16-0.96 0.244 1.363-0.312 1.928-0.72 2.64-0.297 0.776 0.776 0.183 0.48 0.96-1.647 2.113-0.283 7.237-1.92 9.36 0.65-2.709 0.626-6.093 0.72-9.36-4.993-1.007-8.741-3.259-12.48-5.52-0.296 2.397-1.284 6.266-1.44 9.12-0.769 14.025 0 31.346 0 48.48v24.24c0 8.645 1.062 17.489 0 24.24-0.237 1.505-0.284 8.246-0.24 8.64 0.036 0.323-0.01 0.91-0.24 1.44 0.613 1.136-0.175 0.906 0 2.64-0.041 0.681 0.812 0.469 0.48 1.44-0.71 0.747-0.71 3.333 0 4.08-0.887 1.17-0.665 5.273 0 6.48-1.321 2.909-0.106 6.039 0 8.4 0.017 0.383-0.523 0.174-0.48 0.72 0.132 1.666-0.124 5.107 0.48 7.2-0.862 5.413-0.48 13.725-0.48 21.12v60.721c0 27.843-0.842 55.718-0.24 80.159 0.5 20.322-0.509 52.737 0.24 73.2 2.228 10.893 5.86 20.38 12.72 26.641 2.022-0.155 3.782 0.213 5.52 0 3.976-0.486 6.899-2.562 9.6-3.36-3.319 2.681-7.981 4.02-14.16 3.841 2.085 5.323 10.155 1.15 13.68 0.479-2.576 1.504-5.708 2.452-9.6 2.641 5.826 4.494 14.132 6.508 24 6.96 59.783-18.303 117.76-38.397 178.56-55.681 6.852-3.39 12.766-7.714 15.601-15.12-1.767 6.714-6.804 10.156-11.761 13.681 10.195-2.594 15.297-10.347 16.561-21.359 0.807-7.023 0-15.178 0-23.28 0-29.556-0.02-57.336 0-83.279 0.032-44.107 0.24-93.307 0.24-139.44 0-15.64-0.369-36.966 0.479-49.44-0.551-2.322 0.239-5.342-0.479-8.4 1.247-1.05 0.003-2.922 0-4.08 0 0.206 0.465-0.812 0.479-0.96 0.807-8.057 0-17.151 0-26.16v-78.72c-0.918-8.441-4.533-14.186-11.039-17.04-1.631 0.11-2.701-0.339-3.84-0.72-8.513 3.568-18.562 5.598-26.881 9.36 5.911 3.929 13.176 6.504 14.16 15.36-0.314 3.846 0.632 8.952-0.48 12-0.018-4.783 0.112-9.712-0.24-14.16-0.629-1.691-1.586-3.054-2.158-4.8-1.249 0.031-2.003 0.558-2.881 0.96 1.336 1.946 2.185 5.654 1.439 8.88-0.234-2.505-0.104-6.702-1.92-8.88-25.188 7.292-49.883 15.078-74.88 22.56-13.942 5.098-28.728 9.353-43.44 13.68-5.889 2.591-13.16 3.8-19.2 6.24-14.747 4.773-31.46 7.581-42.72 15.84 0.265 1.259 1.666 2.648 0.96 4.08-0.473-1.367-0.577-3.103-1.68-3.84-1.917 1.062 0.999 3.871 0.48 5.04-0.801-1.04-0.917-2.763-1.92-3.6-4.581 2.939-7.142 7.898-9.36 13.2 1.309-6.532 5.626-10.054 9.12-14.4-0.643-1.757-2.006-2.794-2.64-4.56-2.045-1.636-5.522-3.116-6.48-5.04 2.529 2.031 5.567 3.553 7.68 6 0.637 1.363 0.986 3.014 2.64 3.36 0.979-2.505-2.449-4.41-3.84-5.76-1.659-1.61-3.068-2.863-4.56-4.32 3.847 2.233 6.775 5.385 9.36 8.88 1.347 0.067 1.661-0.899 2.4-1.44 0.763-0.037 1.056-0.544 1.92-0.48 6.169-4.63 15.459-6.141 23.28-9.12 3.337-0.743 6.471-1.689 9.36-2.88 26.609-7.471 51.961-16.199 78.241-24 1.217-1.103 3.726-0.915 5.039-1.92 5.201-1.59 10.317-2.943 15.602-4.56 6.857-2.098 14.242-4.559 20.64-6.48 4.345-1.304 8.491-2.482 12.24-3.6 3.505-1.045 8.258-1.788 10.8-3.6-1.332-1.469-3.516-2.085-4.8-3.6 2.914 0.548 5.244 5.351 8.399 2.64-3.76-2.885-7.52-5.762-12.24-7.683z"/>
	<path d="m220.22 15.627c-0.44 1.879-3.166 1.474-4.801 2.16 1.47-0.85 3.21-1.432 4.8-2.16z" fill="#fff"/>
	<path d="m240.38 32.667c-3.155 2.711-5.485-2.092-8.399-2.64 1.284 1.515 3.468 2.131 4.8 3.6-2.542 1.812-7.295 2.555-10.8 3.6-3.749 1.117-7.896 2.295-12.24 3.6-6.396 1.921-13.782 4.382-20.64 6.48-5.283 1.617-10.398 2.97-15.602 4.56-1.313 1.005-3.822 0.817-5.039 1.92-26.278 7.801-51.631 16.529-78.241 24-2.89 1.191-6.023 2.137-9.36 2.88-7.821 2.979-17.11 4.489-23.28 9.12-0.864-0.064-1.157 0.443-1.92 0.48-0.739 0.541-1.053 1.507-2.4 1.44-2.585-3.495-5.513-6.647-9.36-8.88 1.492 1.458 2.901 2.71 4.56 4.32 1.392 1.35 4.819 3.254 3.84 5.76-1.654-0.346-2.003-1.997-2.64-3.36-2.113-2.447-5.151-3.969-7.68-6 0.958 1.924 4.435 3.404 6.48 5.04 0.634 1.766 1.998 2.803 2.64 4.56-3.494 4.346-7.812 7.868-9.12 14.4 2.218-5.302 4.779-10.261 9.36-13.2 1.003 0.837 1.12 2.561 1.92 3.6 0.519-1.169-2.397-3.979-0.48-5.04 1.103 0.737 1.207 2.473 1.68 3.84 0.706-1.431-0.695-2.82-0.96-4.08 11.26-8.26 27.973-11.067 42.72-15.84 6.04-2.439 13.311-3.648 19.2-6.24 14.713-4.328 29.498-8.583 43.44-13.68 24.997-7.482 49.692-15.268 74.88-22.56 1.814 2.179 1.686 6.375 1.92 8.88 0.744-3.226-0.104-6.935-1.439-8.88 0.878-0.402 1.632-0.929 2.881-0.96 0.572 1.746 1.529 3.109 2.158 4.8 0.354 4.447 0.224 9.377 0.24 14.16 1.112-3.048 0.166-8.154 0.48-12-0.984-8.855-8.249-11.431-14.16-15.36 8.318-3.762 18.368-5.792 26.881-9.36 1.139 0.381 2.209 0.83 3.84 0.72 6.506 2.854 10.121 8.599 11.039 17.04v78.72c0 9.009 0.807 18.103 0 26.16-0.015 0.148-0.479 1.166-0.479 0.96 0.003 1.158 1.247 3.03 0 4.08 0.719 3.058-0.071 6.079 0.479 8.4-0.849 12.474-0.479 33.8-0.479 49.44 0 46.134-0.208 95.333-0.24 139.44-0.02 25.943 0 53.724 0 83.279 0 8.104 0.807 16.257 0 23.28-1.264 11.014-6.365 18.767-16.561 21.359 4.957-3.523 9.994-6.967 11.761-13.681-2.835 7.406-8.749 11.73-15.601 15.12-60.801 17.281-118.78 37.378-178.56 55.681-9.868-0.452-18.174-2.466-24-6.96 3.892-0.188 7.024-1.137 9.6-2.641-3.524 0.671-11.594 4.844-13.68-0.479 6.179 0.179 10.84-1.16 14.16-3.841-2.701 0.798-5.624 2.874-9.6 3.359-1.738 0.214-3.498-0.154-5.52 0-6.86-6.26-10.492-15.747-12.72-26.64-0.749-20.463 0.26-52.878-0.24-73.2-0.602-24.441 0.24-52.316 0.24-80.16v-60.72c0-7.396-0.382-15.707 0.48-21.12-0.604-2.093-0.348-5.535-0.48-7.2-0.043-0.545 0.497-0.336 0.48-0.72-0.106-2.361-1.321-5.491 0-8.4-0.665-1.207-0.887-5.31 0-6.48-0.71-0.747-0.71-3.333 0-4.08 0.332-0.971-0.521-0.759-0.48-1.44-0.175-1.733 0.613-1.503 0-2.64 0.229-0.53 0.276-1.117 0.24-1.44-0.043-0.394 0.003-7.134 0.24-8.64 1.062-6.751 0-15.596 0-24.24v-24.24c0-17.134-0.769-34.455 0-48.48 0.156-2.854 1.144-6.723 1.44-9.12 3.739 2.261 7.487 4.513 12.48 5.52-0.093 3.267-0.069 6.651-0.72 9.36 1.637-2.123 0.273-7.247 1.92-9.36 0.296-0.777-0.777-0.184-0.48-0.96 0.408-0.712 0.963-1.277 0.72-2.64-0.265 0.775-0.942 1.138-2.16 0.96 0.667 0.826 1.93 0.428 1.2 2.16-1.988 0.067-2.712-1.127-4.8-0.96-2.292-2.153-7.542-2.479-7.92-5.76 3.453 1.828 6.44 4.12 11.28 4.56-4.188-1.332-8.349-2.691-11.28-5.28 1.714-9.406 4.722-17.519 13.2-20.16 0.444-0.036 0.147-0.813 0.48-0.96 25.568-7.632 50.345-16.056 75.84-23.76 0.133-0.827 1.583-0.337 1.68-1.2 10.323-2.397 19.146-6.294 29.28-8.88 10.491-4.309 22.917-6.683 33.601-10.8 14.332-3.908 28.041-8.439 41.76-12.96 4.72 1.918 8.48 4.795 12.24 7.677zm26.16-0.24c1.896 3.945 1.795 9.886 1.68 15.84 1.111-2.49 0.169-7.032 0.48-10.32-1.373-6.387-4.353-11.167-13.199-10.08-2.306 1.215-6.158 0.882-7.92 2.64 6.28-1.874 15.82-4.192 18.96 1.92zm-23.04 27.12c0.793-0.769 0.793-4.751 0-5.52-0.36 1.732 0.08 3.123 0 5.52zm-84 18.72c1.114-4.404 0.162-10.876 0.479-16.08-0.054-0.187-0.201-0.279-0.479-0.24v16.32zm-1.68-8.88c-0.457 2.48-1.014 9.697 0 13.44 0.56-6.24 0.08-13.52 0.24-20.16h-0.722c0.72 3.07-0.51 3.911 0.48 6.72zm-4.8 6.72c0.797-2.416 0.797-8.144 0-10.56v10.56zm-81.602 43.443c-0.827 4.483 0 10.564 0 15.84 0 28.39-0.24 53.551-0.24 81.6 0 10.884-0.188 23.901 0.24 33.6 1.979 2.021 3.594 4.406 7.68 4.32 52.733-15.503 104.3-32.185 156.96-47.76 1.695-1.503 3.718-2.682 4.561-5.04-0.283-5.451 0.535-10.178 0-13.44 0.551-3.904 0.476-11.479 0.479-19.44-0.858-6.167-0.479-15.414-0.479-24 0-8.71-0.367-18.498 0.479-24.24-1.19-4.754-0.126-12.224 0-14.64-2.478-9.272 2.935-34.965-3.601-39.36-1.705-1.147-4.119-1.054-6.721-0.72-46.507 14.771-94.197 28.365-140.64 43.2v-4.8c-0.557 1.124-0.083 3.277-0.24 4.8-5.463 3.1-17.101 2.59-18.482 10.08zm80.162-52.323c0.012-0.449-0.186-0.508-0.479-0.24 0.151 2.535-0.981 10.109 0.239 13.68 0.56-4 0.08-9.04 0.24-13.44zm-2.16 1.68c0.312 6.958-0.627 15.093 0.48 21.12v-21.6c-0.053-0.187-0.201-0.279-0.48-0.24v0.72zm6 13.92c0.358-3.806 0.11-10.604 0.24-14.4-1.01 2.467-1.09 10.331-0.24 14.4zm-7.44 7.2c-0.158-6.243 0.315-14.396-0.24-19.44 0.16 6.242-0.32 14.396 0.24 19.44zm-1.68-5.28v-8.4h-0.719c0.5 2.238-0.84 6.639 0.72 8.4zm121.92 101.52c1.117-34.929 0.162-71.685 0.48-107.04-0.054-0.188-0.201-0.279-0.48-0.24v107.28zm-174-94.083c-0.312-3.288 0.629-7.83-0.48-10.32 0.094 2.079-0.495 7.672 0.48 10.32zm-2.64-8.88c0.309 6.312-0.625 13.813 0.48 19.2v-19.68c-0.053-0.187-0.201-0.279-0.48-0.24v0.717zm-2.161 18.243c0.271 0.289 0.685 0.435 0.48 1.2v1.44c0.202 0.762 0.317-0.426 0.24-0.72-0.158-6.322 0.317-14.557-0.24-19.68-0.222 6.466 0.465 13.11-0.48 17.76zm-46.319 37.92c0.322 51.155-0.64 107.39 0.48 158.88 0.015-54.466-0.104-109.67 0.24-159.6h-0.72v0.72zm212.88 37.44c1.108-7.558 0.165-16.973 0.479-24.96-0.054-0.187-0.201-0.279-0.479-0.24 0.01 8.88-0.03 16.66 0 25.2zm6.24-5.76c0.003 0.352-0.09 1.964 0.24 1.2v-6.24c0.26-3.181-0.558-7.437 0.479-9.84-0.753-0.048-0.201-1.4-0.722-1.68v16.56zm-4.08-15.36c0.376 12.049-0.747 25.214 0.48 35.04v-35.52c-0.054-0.187-0.201-0.279-0.48-0.24v0.72zm2.16 27.12c-0.151-7.99 0.31-18.056-0.239-24.72 0.15 7.99-0.31 18.05 0.24 24.72zm4.32-9.12c-0.154-3.686 0.312-9.271-0.24-11.76 0.15 3.68-0.31 9.27 0.24 11.76zm1.2 8.4c0.015 0.667-0.187 1.972 0.72 2.16-0.314-4.724 0.635-10.714-0.479-14.64 0.26 3.92-0.31 8.95-0.24 12.48zm2.88 9.12c-0.271-1.088 0.573-3.293-0.48-3.6 0.15 1.48-0.65 2.84 0.48 3.6zm0 4.32c-0.807-1.575 0.803-2.614-0.72-3.36 0.12 1.23-0.39 3.11 0.72 3.36zm-0.48 2.16h0.48v-1.92h-0.48v1.92zm0 10.32c-0.348-0.908 0.66-0.46 0.48-1.2-0.738-0.332 0.895-6.177-0.48-8.4-0.08 2.62-0.41 7.09 0 9.6zm-219.36 5.04c1.064-0.698 0.452-2.638 0.72-4.56h-0.72c0.751 1.51-0.3 2.28 0 4.56zm219.36-3.12c-0.18-0.739 0.828-0.292 0.48-1.2-0.33 0.011-0.527-0.113-0.721-0.24 0.14 0.42-0.29 1.41 0.24 1.44zm-219.36 3.84c0.006 0.634-0.224 1.504 0.72 1.2-0.396-0.534 0.051-1.301-0.24-1.44-0.052 0.18-0.2 0.28-0.48 0.24zm219.36 5.04v-4.32c0.174-0.521-0.245-1.527-0.239-0.48-0.146 2.043 0.089 4.703 0.239 6.48 0.044 0.509-0.896 1.942 0.48 1.68-0.548-0.696-0.548-1.224 0-1.92-1.005 0.091-0.263-0.872 0-0.96-0.29-0.03-0.57-0.07-0.48-0.48zm-219.36-2.88c0.313 11.922-0.63 25.003 0.48 36 0.135-12.518-0.16-23.964 0.24-36.72h-0.72v0.72zm219.12 99.36v90.96c-0.175 0.868 0.414 0.868 0.239 0v-138.96c-0.182-15.584 0.369-31.43-0.239-44.641v92.64zm-51.12-66.96c0.824-1.768 1.206-6.909 0-8.4v8.4zm-0.24 28.56c-2.394-0.486-1.439-3.971-1.439-6 0-7.431 0.449-16.002-0.479-21.12-0.16 8.64 0.319 17.92-0.24 26.159-2.338-1.103-0.725-6.155-1.201-9.119v-10.32c0.13-1.389-0.428-0.832-0.238 0.24v13.199c0 2.555 0.682 5.427-0.96 4.561-2.827-1.49-3.297-1.771-6-2.88-11.08-4.542-25.093-5.351-37.921-3.601-0.776-0.297-0.184 0.776-0.96 0.479-26.419 4.94-43.79 18.931-59.04 35.04-1.584 2.816-3.828 4.973-6 7.2-1.633 2.847-3.169 5.791-5.52 7.92-7.453 13.811-15.247 28.479-18 47.521-1.272 8.797-1.882 18.029-0.72 27.12 0.918 7.184 2.73 14.889 5.04 21.12 0.803 2.166 2.334 4.145 3.36 6.239 1.118 2.286 1.848 4.564 3.12 6.479 2.518 3.791 5.948 7.024 8.64 10.801 0.309 6.227-0.625 13.658 0.48 18.96 0.16-6.16-0.32-12.96 0.24-18.721 0.218 0.822 1.086 0.993 1.44 1.681 0.312 10.468-0.629 22.139 0.48 31.681 0.312-10.163-0.629-21.486 0.48-30.721 1.906 0.654 1.2 3.302 1.2 4.8v42.24c1.079-1.369 0.475-3.338 0.48-5.04 0.037-12.813-0.354-27.839 0.48-40.319 2.06 1.387 1.2 4.696 1.2 7.199v25.2c1.31-0.77 0.487-2.473 0.48-3.601-0.048-7.907-0.305-18.644 0.48-27.359 1.728 0.868 1.2 3.215 1.2 5.04v18.72c1.436-6.164-0.476-15.676 0.96-21.84 2.063 1.173 1.2 4.878 1.2 7.92 0 3.12-0.387 6.606 0.479 8.641 0.16-4.961-0.319-10.56 0.24-15.12 7.746 4.231 17.048 8.189 28.081 9.359 4.84 0.514 9.663-0.26 14.639 0 2.826-0.613 5.652-1.229 8.881-1.439 6.095-2.113 12.814-3.814 18.96-6.479 1.585-0.688 2.862-1.839 4.319-2.64 4.08-2.242 8.084-4.101 11.76-6.721 3.486-2.483 6.625-5.544 10.08-8.399 6.645-5.491 12.703-11.994 17.762-19.2 13.842-19.72 25.389-43.311 24.238-76.08-0.795-1.764-0.553-4.565-0.719-6.96-3.52-22.241-12.986-38.533-27.841-49.439-0.555-7.686-0.084-16.396-0.239-24.479-1.27 6.969 0.151 16.538-0.721 23.521-2.227-0.898-1.439-4.031-1.439-6.24 0-8.31 0.078-15.417 0-22.799-0.053-0.187-0.2-0.279-0.479-0.24-0.16 9.2 0.32 19.04-0.24 27.84zm-5.76-16.32c0.236 6.105-0.344 8.742 0 12 0.23 2.195 0.249-0.906 0.24-0.721 0.218-4.229-0.342-9.829 0.479-11.759-0.33 0.01-0.527-0.113-0.72-0.24v0.72zm-168 121.2v23.04s0 15.359 0 23.04v14.401c-0.177 0.96 0.27 2.528 0.24 0.721v-28.801c0.316-15.044-0.635-31.354 0.48-45.601-0.354-7.468-0.478-17.146 0-24.479 0.053-0.81-0.509-4.031-0.48-4.561 0.023-0.43 0.577-2.059 0.48-3.119-0.994-10.843 1.13-25.519-0.48-37.92-0.236 25.97-0.263 53.54-0.24 83.28zm225.12 33.6c0.399-1.843 0.399-5.356 0-7.2 0.06 3.8-0.79 5.32 0 7.2zm0.96 18.96c-0.348-0.908 0.659-0.461 0.479-1.2-1.019-0.028-0.053-3.295-0.719-2.88 0.16 1.28-0.32 3.19 0.24 4.08zm0 7.68c-0.139-1.547 0.29-4.926-0.24-5.28 0.14 1.54-0.29 4.92 0.24 5.28zm-2.88 12.48c1.532-2.875 3.146-8.204 2.159-12 0.2 4.92-1.16 8.27-2.16 12zm-22.56 16.32c0.864-0.095 2.008 0.089 2.16-0.72-0.98-0.02-1.39 0.53-2.16 0.72zm-20.4 6.24c6.771-2.029 13.845-3.756 20.158-6.24-6.8 1.99-13.87 3.73-20.16 6.24zm-5.28 1.44c-1.829 0.229 0.677 0.258 1.681 0 0.933-0.241 2.662-1.381 3.119-1.439-1.78 0.3-3.52 0.64-4.8 1.44zm-13.92 3.84c-1.095 1.146-3.706 0.774-4.8 1.92-25.739 7.142-50.125 15.637-75.36 23.28-6.636 2.804-14.419 4.46-21.12 7.199-2.361 0.358-4.593 0.847-6 2.16 19.967-6.354 40.059-12.581 59.52-19.439 5.688-1.353 11.086-2.995 16.079-5.04 5.855-1.347 11.367-3.035 16.562-5.04 9.599-2.562 18.982-5.338 27.841-8.641-4.48 0.96-8.08 2.79-12.72 3.6zm-155.76 10.32c1.129 3.844 2.809 6.733 4.8 10.08 0.574 0.965 0.761 2.269 1.44 3.12 0.385 0.481 1.109 0.71 1.44 1.2 0.91 1.347 1.917 3.013 3.6 3.359 2.008 2.552 5.48 4.919 9.12 5.04-11.76-4.001-18.308-14.492-20.64-27.12-0.183 1.7 0.298 2.74 0.24 4.32z" fill="#fff"/>
	<path d="m247.58 30.507c1.762-1.758 5.614-1.425 7.92-2.64 8.848-1.087 11.826 3.693 13.199 10.08-0.312 3.288 0.631 7.83-0.48 10.32 0.115-5.954 0.217-11.895-1.68-15.84-3.14-6.112-12.68-3.794-18.96-1.92z"/>
	<path d="m152.06 36.027c-1.431 3.691-6.591 3.649-10.8 4.56 1.996-1.205 5.447-0.953 7.439-2.16 1.321-6.109-5.156-3.5-8.16-2.88-0.103 1.753 0.157 3.981 0 5.04-1.248-0.388-0.088-3.263-0.479-5.04-2.081-0.029-1.729 4.11-0.72 5.04-1.725-0.676-4.72-0.08-4.32-2.88 3.352-2.958 10.545-4.58 16.32-2.88 0.19 0.446 0.31 0.969 0.72 1.2zm-15.12 3.12v-1.92c-0.95-0.31-0.49 0.79-1.44 0.479 0.002 0.638-0.091 1.371 0.24 1.68 0.68 0.199 0.62-0.338 1.2-0.239zm12.24-1.2c0.733 0.173 0.875-0.245 1.44-0.24v-2.64c-0.68 0.198-0.623-0.338-1.201-0.24-0.47 0.648-0.14 2.097-0.24 3.12zm-11.52 1.92h0.479c0.553-0.647 0.085-2.314 0.239-3.36h-1.199c0.26 1.014-0.57 3.125 0.48 3.36z"/>
	<path d="m123.26 43.227c1.834 0.104 0.682 2.69-0.48 2.64 0.56-0.583 1.05-1.611 0.48-2.64z" fill="#fff"/>
	<path d="m100.7 48.027c-1.305 0.405-3.293 1.787-1.2 2.88-0.836 0.506-1.968-0.745-1.68-2.16 0.914-0.285 1.736-0.664 2.88-0.72z" fill="#fff"/>
	<path d="m125.42 43.467c0.307 2.307-1.31 2.69-2.16 3.84-7.138 1.422-13.231 3.889-19.92 5.76-4.015 0.273-8.218-1.803-6-5.52 6.753-1.522 14.52-4.766 21.6-5.52 2.3-0.246 4.85-0.584 6.48 1.44zm-21.12 4.08v2.88c5.122-0.798 9.087-2.752 13.92-3.84-0.266-1.014 0.565-3.125-0.48-3.36-4.16 1.766-8.89 2.949-13.44 4.32zm15.84-1.68c0.549-0.411 0.088-1.832 0.24-2.64h-0.72c0.24 0.798-0.53 2.61 0.48 2.64zm1.2 0c0.37-0.831 1.935-0.465 1.92-1.68-0.676-0.364-1.1-0.981-2.16-0.96-0.39 0.863-0.86 2.175 0.24 2.64zm1.44 0c1.162 0.051 2.314-2.536 0.48-2.64 0.57 1.029 0.08 2.057-0.48 2.64zm-4.32-1.92c0.571 0.163 0.359 2.343 0.72 1.92-0.149-0.651 0.305-1.905-0.24-2.16-0.05 0.187-0.2 0.279-0.48 0.24zm-20.641 4.8c-0.288 1.415 0.844 2.667 1.68 2.16-2.093-1.093-0.105-2.475 1.2-2.88-1.144 0.056-1.966 0.435-2.881 0.72zm2.401 1.68v-1.44c-0.959-0.079-1.426 0.334-1.44 1.2 0.733-0.174 0.704 0.414 1.44 0.24zm3.12 0.48c0.661-0.702 0.533-1.85 0.24-2.88h-0.72c0.25 0.869-0.55 2.784 0.48 2.88zm-2.16 0c0.319-0.181 0.602-2.346-0.24-2.16-0.22 0.285-0.68 2.272 0.24 2.16zm0.48 0c0.933 0.144 1.138-2.366 0-2.16v2.16z"/>
	<path d="m89.898 109.47c0.158-1.522-0.316-3.676 0.24-4.8v4.8c46.443-14.835 94.133-28.429 140.64-43.2 2.603-0.333 5.015-0.427 6.72 0.72 6.535 4.395 1.123 30.088 3.602 39.36-0.126 2.417-1.191 9.886 0 14.64-0.848 5.743-0.48 15.53-0.48 24.24 0 8.586-0.377 17.833 0.48 24-0.006 7.96 0.07 15.536-0.48 19.44 0.536 3.262-0.283 7.989 0 13.44-0.842 2.358-2.863 3.537-4.56 5.04-52.663 15.575-104.23 32.256-156.96 47.76-4.086 0.086-5.702-2.298-7.68-4.32-0.427-9.699-0.24-22.716-0.24-33.6 0-28.049 0.24-53.21 0.24-81.6 0-5.275-0.827-11.357 0-15.84 1.379-7.49 13.017-6.98 18.478-10.08zm-13.199 142.56c-1.725-1.075-2.92-2.68-3.84-4.56-0.002-30.203 0-63.095 0-94.32 0-10.798-0.534-25.106 0.72-34.08 1.114-0.806 1.81-2.03 2.88-2.88 12.604-3.978 25.355-7.873 38.16-12.24 12.62-4.305 25.778-7.586 38.64-11.76 23.812-7.727 48.732-14.925 72.24-22.32 2.905-0.914 6.215-1.93 9.359-1.44 1.65 1.23 3.337 2.423 4.08 4.56 0.79 0.73-0.471 3.509 0.721 3.84 0.676-5.224-1.645-9.615-6-9.84-1.343-0.069-3.16 0.677-5.041 1.2-4.91 1.365-10.012 3.214-14.64 4.56-19.767 5.748-40.776 12.525-59.04 18-13.555 3.485-25.937 8.144-39.36 11.76-6.278 2.529-12.953 4.195-19.44 6.24-6.529 2.058-12.902 4.481-19.68 6-4.862 1.765-3.84 7.816-3.84 14.88 0 13.045-0.188 29.993 0 39.84 0.05 2.613-1.055 5.255 0 7.68-0.858 10.382-0.48 23.646-0.48 37.68 0 9.241-0.041 18.08 0 25.68 0.017 3.148-0.553 6.728 0 8.88 0.312 1.216 2.769 3.751 3.6 4.08 2.146 0.851 4.708-0.077 6.96-0.72 5.352-1.53 10.777-3.378 15.36-4.8 21.032-5.688 40.628-12.812 61.68-18.48 21.022-7.224 45.103-13.852 66.96-20.64 3.291-1.022 6.805-1.819 9.6-3.12 1.77-0.822 3.422-3.277 3.602-5.52 0.719-8.969 0.277-19.504 0-29.52-0.727-26.109 0.473-48.492-0.24-72.48-1.275 31.96 0.156 68.037-0.72 99.36-0.183-6.083 0-18.03 0-28.08-0.001-32.115 0-64.741 0-96-1.265-2.577-3.253-4.428-6.479-5.04-52.217 15.864-104.47 31.691-156 48.24-0.637 1.521-2.385 1.895-2.88 3.12-1.298 3.212-0.24 10.996-0.24 15.84 0 37.57-0.196 77.521 0.24 113.04 2.001 2.097 3.838 3.956 7.92 3.36 3.106-0.454 6.688-2.342 10.32-3.36 3.898-1.093 7.678-2.178 10.56-2.64-8.462 1.94-15.496 6.57-25.681 6zm162.96-159.84c-0.23-0.73 0.514-2.434-0.48-2.4 0.23 0.73-0.51 2.434 0.48 2.4zm0 3.84c-0.146-0.495 0.387-1.667-0.48-1.44 0.14 0.495-0.39 1.667 0.48 1.44zm-0.48 1.92c0.737 0.367 0.737-1.567 0-1.2v1.2z"/>
	<path d="m155.66 68.427c-0.131 3.795 0.117 10.594-0.24 14.4-0.85-4.069-0.77-11.933 0.24-14.4z"/>
	<path d="m176.78 100.11c-3.914 5.97-7.557 12.004-11.521 18-1.322 2.002-3.342 3.777-4.318 5.76-0.578 1.174-0.68 2.546-2.16 3.12-1.095 2.505-2.601 4.6-4.32 6.48-0.306 1.934-2.014 2.466-2.398 4.32-1.479 0.361-1.047 2.634-2.641 2.88 9.3-13.34 17.79-27.49 27.36-40.56z"/>
	<path d="m230.3 111.87c-1.062 3.898-4.942 7.057-6.479 11.28-4.829 5.331-8.06 12.261-12.72 17.76 6.21-9.88 12.97-19.19 19.2-29.04z"/>
	<path d="m163.82 114.03c-1.771 5.189-6.663 9.337-8.88 14.88-5.329 5.952-8.88 13.681-14.16 19.68-1.302 2.858-3.072 5.247-5.04 7.44-1.648 3.872-4.07 6.97-6.48 10.08-0.371 0.91-0.434 2.126-1.68 2.16 11.9-18.26 24.36-35.96 36.24-54.24z"/>
	<path d="m221.66 120.27c-0.755 2.367-2.937 5.383-4.801 7.44-0.166 1.034-0.576 1.823-1.439 2.16-1.625 2.896-3.478 5.879-5.28 8.64-0.279 0.428-0.942 0.506-1.199 0.96-0.728 1.284-0.739 2.988-2.399 3.6-2.996 5.563-6.896 10.224-10.08 15.6-0.51-0.683 0.477-1.915 1.199-2.16 2.016-4.465 5.358-7.602 7.44-12 0.862-0.337 1.272-1.126 1.438-2.16 1.203 0.002 0.799-1.602 1.92-1.68 3.79-7.41 8.96-13.44 13.2-20.4z"/>
	<path d="m164.54 121.71c-1.636 2.429-2.746 5.198-4.56 7.92-0.276 0.414-0.981 0.561-1.2 0.96-1.585 2.887-3.789 5.332-5.76 8.16-0.451 0.647-0.398 1.795-0.96 2.64-0.956 1.439-3.334 2.968-3.601 5.28-6.351 7.49-10.736 16.943-17.041 24.48 10.76-16.76 21.88-33.16 33.12-49.44z"/>
	<path d="m222.38 127.95c-0.414 2.875-4.422 6.292-5.76 9.84-1.66 1.3-2.812 3.108-3.601 5.28-3.401 4.039-6.388 8.494-8.881 13.44-0.942 0.257-1.353 1.046-1.438 2.16-1.695 0.865-1.887 3.235-3.361 4.32 7.01-12.35 15.48-23.24 23.04-35.04z"/>
	<path d="m165.26 167.55c-8.383 14.016-17.887 26.911-26.639 40.56-0.431-1.156 0.941-2.573 1.92-3.12 1.477-4.523 5.227-6.773 6.719-11.28 4.939-5.221 7.82-12.5 12.721-17.76 1.26-3.31 3.27-5.85 5.28-8.4z"/>
	<path d="m152.78 181.71c-12.242 17.918-23.969 36.351-36.48 54 4.398-7.597 9.906-14.573 14.88-22.08 1.085-1.638 1.658-2.954 2.4-4.8 4.874-5.207 7.861-12.298 12.719-17.52 0.121-2.28 2.201-2.6 2.4-4.8 1.88-1.08 2.07-3.85 4.08-4.8z"/>
	<path d="m153.5 189.15c-11.228 16.613-22.227 33.455-33.601 49.92 3.595-6.965 8.659-12.462 12.24-19.44 1.729-0.671 1.551-3.249 3.36-3.84 2.002-5.197 6.165-8.236 8.161-13.44 3.95-3.73 5.92-9.44 9.84-13.2z"/>
	<path d="m268.22 198.51c1.375 2.223-0.258 8.068 0.48 8.4 0.18 0.74-0.828 0.292-0.48 1.2-0.41-2.51-0.08-6.98 0-9.6z"/>
	<path d="m238.46 199.23c1.24 0.312 0.013 1.795 0 2.4-0.58-0.44 0.33-1.42 0-2.4z"/>
	<path d="m237.5 202.83c-0.944 2.977-6.539 3.381-9.601 5.04-22.403 6.076-43.383 13.578-65.761 19.68-0.245 0.234-0.485 0.475-0.721 0.72-20.022 5.336-38.529 12.189-58.56 17.52 28.419-9.021 56.962-17.917 85.92-26.4 11.24-4.2 23.888-6.993 35.04-11.28 5.07-1.25 10.56-2.09 13.68-5.28z"/>
	<path d="m49.338 213.63c0.291 0.139-0.156 0.906 0.24 1.44-0.944 0.304-0.714-0.566-0.72-1.2 0.28 0.04 0.428-0.06 0.48-0.24z"/>
	<path d="m268.7 219.39c-0.262 0.088-1.004 1.051 0 0.96-0.547 0.696-0.547 1.224 0 1.92-1.375 0.262-0.437-1.171-0.48-1.68-0.149-1.777-0.383-4.437-0.238-6.48-0.006-1.047 0.413-0.041 0.238 0.48v4.32c-0.09 0.41 0.19 0.45 0.48 0.48z"/>
	<path d="m43.099 298.59c1.61 12.401-0.514 27.077 0.48 37.92 0.097 1.062-0.457 2.689-0.48 3.119-0.029 0.528 0.533 3.751 0.48 4.562-0.478 7.332-0.354 17.012 0 24.479-1.115 14.245-0.164 30.557-0.48 45.601v28.801c0.03 1.809-0.417 0.239-0.24-0.721v-37.441s0-15.359 0-23.04c-0.024-29.74 0.003-57.31 0.24-83.28z"/>
	<path d="m268.22 442.59c0.986 3.796-0.627 9.125-2.159 12 1-3.73 2.36-7.08 2.16-12z"/>
	<path d="m245.66 470.19c-0.152 0.809-1.296 0.625-2.16 0.72 0.77-0.19 1.18-0.74 2.16-0.72z"/>
	<path d="m243.26 470.91c-6.313 2.484-13.389 4.211-20.158 6.24 6.29-2.51 13.36-4.25 20.16-6.24z"/>
	<path d="m222.62 477.15c-0.457 0.06-2.188 1.198-3.119 1.439-1.004 0.258-3.51 0.229-1.681 0 1.28-0.8 3.02-1.14 4.8-1.44z"/>
	<path d="m216.62 478.83c-8.856 3.303-18.242 6.079-27.84 8.641-5.193 2.005-10.707 3.693-16.561 5.04-4.994 2.045-10.393 3.688-16.08 5.04-19.461 6.858-39.552 13.087-59.52 19.439 1.407-1.313 3.639-1.802 6-2.16 6.701-2.739 14.484-4.396 21.12-7.199 25.235-7.645 49.621-16.14 75.36-23.28 1.094-1.146 3.705-0.773 4.8-1.92 4.64-0.81 8.24-2.64 12.72-3.6z"/>
	<path d="m47.898 488.43c2.333 12.628 8.88 23.119 20.64 27.12-3.64-0.121-7.112-2.488-9.12-5.04-1.682-0.348-2.69-2.014-3.6-3.359-0.332-0.49-1.056-0.719-1.44-1.2-0.679-0.853-0.866-2.155-1.44-3.12-1.991-3.347-3.671-6.236-4.8-10.08 0.059-1.58-0.422-2.62-0.24-4.32z"/>
	<path d="m220.94 11.307c0.934 2.56 1.576 6.198-0.721 7.68-14.854 4.347-29.278 9.121-43.92 13.68-3.357-0.575-5.924-2.067-5.041-6.24 1.341-2.741 5.191-2.969 7.201-5.04 10.934-2.51 23.217-8.478 34.319-11.04 3.18-0.734 5.58-0.42 8.16 0.96zm-0.72 1.44c-0.533-0.399-1.051-1.279-1.439-1.44-3.035-1.256-6.404 0.269-8.88 1.2-4.437 1.669-9.608 2.505-12.479 4.32-5.59 1.051-9.877 3.403-15.359 4.56-1.423 0.897-3.713 0.927-4.32 2.64-0.189 1.149 0.795 1.125 0.721 2.16 1.84 0.239 3.136 1.024 5.521 0.72 2.761-1.4 6.394-1.926 9.12-3.36 5.998-1.258 11.829-3.781 17.52-5.76 3.336-1.16 7.389-1.419 9.601-4.32v-0.72zm-4.8 5.04c1.635-0.686 4.359-0.28 4.801-2.16-1.59 0.728-3.33 1.31-4.8 2.16zm-43.44 10.8c0.343 3.766 6.967 3.179 9.12 0.72-2.984-0.136-4.688-1.553-4.32-5.04-2.26-0.885-4.93 2.946-4.8 4.32zm10.08-0.24c0.453-0.106 1.446 0.327 1.198-0.48-0.46 0.106-1.45-0.326-1.2 0.48z"/>
	<path d="m102.38 246.03c-2.881 0.462-6.662 1.547-10.56 2.64-3.632 1.018-7.214 2.906-10.32 3.36-4.082 0.596-5.918-1.263-7.92-3.36-0.437-35.52-0.24-75.47-0.24-113.04 0-4.844-1.058-12.628 0.24-15.84 0.495-1.225 2.243-1.598 2.88-3.12 51.532-16.549 103.78-32.376 156-48.24 3.228 0.612 5.217 2.463 6.479 5.04 0 31.259-0.001 63.885 0 96 0 10.05-0.183 21.997 0 28.08 0.876-31.323-0.556-67.4 0.72-99.36 0.713 23.988-0.486 46.371 0.24 72.48 0.277 10.016 0.719 20.551 0 29.52-0.18 2.243-1.832 4.698-3.602 5.52-2.795 1.3-6.309 2.098-9.6 3.12-21.857 6.789-45.938 13.416-66.96 20.64-21.052 5.668-40.648 12.792-61.68 18.48-4.583 1.422-10.008 3.271-15.36 4.8-2.252 0.643-4.813 1.57-6.96 0.72-0.831-0.329-3.288-2.864-3.6-4.08-0.553-2.152 0.017-5.732 0-8.88-0.041-7.6 0-16.439 0-25.68 0-14.033-0.378-27.298 0.48-37.68-1.055-2.425 0.05-5.067 0-7.68-0.188-9.847 0-26.795 0-39.84 0-7.064-1.022-13.115 3.84-14.88 6.778-1.519 13.151-3.942 19.68-6 6.487-2.044 13.162-3.711 19.44-6.24 13.423-3.617 25.805-8.275 39.36-11.76 18.264-5.475 39.273-12.252 59.04-18 4.628-1.346 9.729-3.194 14.64-4.56 1.881-0.523 3.698-1.27 5.041-1.2 4.355 0.225 6.676 4.616 6 9.84-1.189-0.331 0.069-3.11-0.721-3.84-0.743-2.137-2.43-3.33-4.08-4.561-3.145-0.49-6.454 0.526-9.359 1.44-23.508 7.396-48.428 14.593-72.24 22.32-12.862 4.173-26.021 7.455-38.64 11.76-12.805 4.368-25.556 8.262-38.16 12.24-1.07 0.85-1.766 2.074-2.88 2.88-1.254 8.974-0.72 23.282-0.72 34.08 0 31.225-0.002 64.117 0 94.32 0.92 1.88 2.116 3.485 3.84 4.56 10.184 0.57 17.218-4.06 25.68-6zm47.04-105.36c1.595-0.246 1.162-2.519 2.642-2.88 0.386-1.854 2.094-2.386 2.399-4.32 1.72-1.88 3.226-3.975 4.319-6.48 1.481-0.574 1.582-1.946 2.16-3.12 0.978-1.982 2.996-3.757 4.319-5.76 3.964-5.996 7.605-12.03 11.521-18-9.57 13.07-18.06 27.22-27.36 40.56zm61.68 0.24c4.66-5.499 7.891-12.429 12.72-17.76 1.537-4.224 5.417-7.382 6.479-11.28-6.23 9.85-12.99 19.16-19.2 29.04zm-83.52 27.36c1.247-0.034 1.31-1.25 1.68-2.16 2.41-3.11 4.832-6.208 6.48-10.08 1.968-2.193 3.738-4.582 5.04-7.44 5.28-6 8.831-13.729 14.16-19.68 2.217-5.542 7.107-9.691 8.88-14.88-11.88 18.28-24.34 35.98-36.24 54.24zm80.88-27.6c-1.123 0.078-0.719 1.682-1.92 1.68-0.166 1.034-0.578 1.823-1.439 2.16-2.082 4.398-5.426 7.535-7.439 12-0.725 0.245-1.711 1.478-1.201 2.16 3.185-5.376 7.084-10.037 10.08-15.6 1.66-0.612 1.674-2.316 2.4-3.6 0.257-0.454 0.92-0.532 1.199-0.96 1.804-2.761 3.654-5.745 5.279-8.64 0.863-0.337 1.274-1.126 1.44-2.16 1.864-2.057 4.046-5.073 4.8-7.44-4.24 6.96-9.41 12.99-13.2 20.4zm-77.04 30.48c6.304-7.537 10.69-16.99 17.041-24.48 0.267-2.312 2.645-3.841 3.601-5.28 0.562-0.845 0.509-1.993 0.96-2.64 1.971-2.828 4.175-5.273 5.76-8.16 0.219-0.399 0.924-0.546 1.2-0.96 1.813-2.722 2.924-5.491 4.56-7.92-11.24 16.28-22.36 32.68-33.12 49.44zm67.92-8.16c1.476-1.085 1.666-3.455 3.361-4.32 0.086-1.114 0.496-1.903 1.438-2.16 2.493-4.946 5.479-9.401 8.881-13.44 0.787-2.172 1.938-3.98 3.601-5.28 1.338-3.548 5.346-6.965 5.76-9.84-7.56 11.8-16.03 22.69-23.04 35.04zm-39.36 12.96c-4.899 5.26-7.78 12.539-12.72 17.76-1.493 4.507-5.243 6.757-6.721 11.28-0.978 0.547-2.35 1.964-1.92 3.12 8.752-13.649 18.256-26.544 26.641-40.56-2.01 2.55-4.02 5.09-5.28 8.4zm-11.28 10.56c-0.199 2.2-2.279 2.52-2.4 4.8-4.858 5.222-7.848 12.313-12.719 17.52-0.742 1.847-1.315 3.163-2.4 4.8-4.974 7.507-10.481 14.483-14.88 22.08 12.511-17.649 24.238-36.082 36.48-54-2.01 0.95-2.2 3.72-4.08 4.8zm-5.04 15.84c-1.996 5.204-6.158 8.243-8.161 13.44-1.809 0.591-1.631 3.169-3.36 3.84-3.582 6.978-8.645 12.475-12.24 19.44 11.375-16.465 22.374-33.307 33.601-49.92-3.92 3.76-5.89 9.47-9.84 13.2zm94.8-0.72c0.013-0.605 1.24-2.087 0-2.4 0.33 0.98-0.58 1.96 0 2.4zm-14.64 6.48c-11.153 4.287-23.8 7.08-35.04 11.28-28.958 8.483-57.501 17.378-85.92 26.4 20.03-5.33 38.537-12.183 58.561-17.52 0.233-0.246 0.475-0.486 0.72-0.72 22.378-6.103 43.356-13.604 65.761-19.68 3.062-1.659 8.655-2.063 9.6-5.04-3.12 3.19-8.61 4.03-13.68 5.28z" fill="#A4A4A4"/>
<metadata><rdf:RDF><cc:Work><dc:format>image/svg+xml</dc:format><dc:type rdf:resource="http://purl.org/dc/dcmitype/StillImage"/><cc:license rdf:resource="http://creativecommons.org/licenses/publicdomain/"/><dc:publisher><cc:Agent rdf:about="http://openclipart.org/"><dc:title>Openclipart</dc:title></cc:Agent></dc:publisher></cc:Work><cc:License rdf:about="http://creativecommons.org/licenses/publicdomain/"><cc:permits rdf:resource="http://creativecommons.org/ns#Reproduction"/><cc:permits rdf:resource="http://creativecommons.org/ns#Distribution"/><cc:permits rdf:resource="http://creativecommons.org/ns#DerivativeWorks"/></cc:License></rdf:RDF></metadata></svg>
