<?xml version="1.0"?>
<svg xmlns:rdf="http://www.w3.org/1999/02/22-rdf-syntax-ns#" xmlns="http://www.w3.org/2000/svg" xmlns:cc="http://web.resource.org/cc/" xmlns:xlink="http://www.w3.org/1999/xlink" xmlns:dc="http://purl.org/dc/elements/1.1/" xmlns:svg="http://www.w3.org/2000/svg" id="svg2" viewBox="0 0 714.87 621.23" version="1.0">
  <defs id="defs3">
    <linearGradient id="linearGradient5532" y2="-453.63" gradientUnits="userSpaceOnUse" x2="515.03" gradientTransform="translate(546.85 86.429)" y1="-453.63" x1="-23.374">
      <stop id="stop5520" stop-color="#191919" offset="0"/>
      <stop id="stop5526" stop-color="#191919" stop-opacity=".58333" offset="1"/>
      <stop id="stop5522" stop-color="#191919" stop-opacity="0" offset="1"/>
    </linearGradient>
  </defs>
  <g id="layer1" transform="translate(-23.748 -166.97)">
    <g id="g9126" transform="matrix(.85916 0 0 .86014 -392.4 51.156)">
      <path id="path9122" d="m719.23 749.32l-38.39 21.21-25.25 17.17 4.04 24.25 37.38 19.19 32.32 8.08 60.61 11.11 70.71 6.06 81.82-2.02 93.93-8.08 65.7-14.14 32.3-25.25 1-12.13-15.1-20.2-28.3-16.16-345.5-56.57-27.27 47.48z" fill-rule="evenodd" stroke="#000" stroke-width="1px" fill="#313234"/>
      <path id="path9124" d="m1007.1 773.56l-39.37 13.13-77.79 3.03-77.78-9.09-38.38-25.25 116.16-59.6 117.16 77.78z" fill-rule="evenodd" stroke="#000" stroke-width="1px" fill="#050505"/>
      <path id="path1934" d="m490.93 147.27l-6.06 521.23 8.08 10.11 636.45 58.58 8-6.06 20.2-565.68-4-18.18-646.5-2.02-16.17 2.02z" fill-rule="evenodd" stroke="#000" stroke-width="1px" fill="#646b75"/>
      <g id="g5528" fill-rule="evenodd" stroke="#000" stroke-width="1px" transform="translate(25.714 797.14)">
        <path id="path2837" d="m533.07-581.45l-8.08 387.9 523.21 40.41 14.2-420.23-529.33-8.08z" fill="#fff"/>
        <path id="path3730" d="m532.05-581.35l-8.08 387.9 523.23 40.4 14.2-420.22-529.35-8.08z" fill="url(#linearGradient5532)"/>
      </g>
      <path id="path5534" d="m1137.4 730.07l76.9-25.45 16.1-553.31-10.1-16.17-715.14 10.6 648.34 1.06 4.8 19.51-20.9 563.76z" fill-rule="evenodd" stroke="#000" stroke-width="1px" fill="#72767f"/>
      <path id="path5536" d="m1230.2 209.91l12.2 12.15 67.8 32.14 0.7 21.43h3.6v5l-4.3 1.43 0.7 4.28 3.6 0.72v5.71l-4.3 1.43 1.4 6.43 3.6 0.71v5.72h-3.6l-1.4 7.14h5.7l-0.7 8.57-5 0.71-4.3 165-27.1 29.29-23.6 29.29-23.6 30.71-14.2 25 12.8-392.86z" fill-rule="evenodd" stroke="#000" stroke-width="1px" fill="#38393d"/>
      <path id="path5538" d="m1291.8 502.72l-5 121.07-33.9 35.72-22.2 19.28-15.3 13.22 1.7-90.36 15-25.72 17.2-20.71 20-24.29 22.5-28.21z" fill-rule="evenodd" stroke="#000" stroke-width="1px" fill="#595959"/>
      <path id="path5540" d="m556.07 684.15l3.93 44.64 33.57 4.29 57.86 8.57 65 8.57 77.86 6.43 77.14 7.86 64.28 5 82.89 4.28 67.5 2.23 1.1-13.02 2-10.76 0.2-6.22 3-11.84-115.97-11.1-108.22-10-103.57-9.65-103.21-9.28-21.79-2.14-83.57-7.86z" fill-rule="evenodd" stroke="#000" stroke-width="1px" fill="#596068"/>
      <path id="path5542" d="m1089.4 733.15l41 4.55 8-7.58-1 43.95-51.5 1.51 3.5-42.43z" fill-rule="evenodd" stroke="#000" stroke-width="1px" fill="#596068"/>
      <path id="path5544" d="m1137.4 774.07l1.5-44.45 56.6-18.18-58.1 62.63z" fill-rule="evenodd" stroke="#000" stroke-width="1px" fill="#595959"/>
      <path id="path5546" d="m1216.4 625.31l73.6-96.21-1 12.12-73.1 97.69 0.5-13.6z" stroke="#000" stroke-width="1px" fill-rule="evenodd"/>
      <path id="path5554" d="m1216.2 681.64l71.4-90.5-1 11.05-71.6 88.76 1.2-9.31z" stroke="#000" stroke-width="1px" fill-rule="evenodd"/>
      <path id="path5556" d="m1216.1 662.57l72.9-94.07-1.1 12.12-72.6 94.48 0.8-12.53z" stroke="#000" stroke-width="1px" fill-rule="evenodd"/>
      <path id="path5558" d="m1216.5 646.11l72.5-94.78-1.1 12.12-71.9 94.12 0.5-11.46z" stroke="#000" stroke-width="1px" fill-rule="evenodd"/>
      <path id="path5560" d="m-74.286 525.93a22.143 19.286 0 1 1 -44.284 0 22.143 19.286 0 1 1 44.284 0z" transform="translate(1090 222.86)" stroke="#121111" stroke-width="5.5" fill="#77818a"/>
      <path id="path6455" d="m-314.29 678.79a2.8571 2.1429 0 1 1 -5.71 0 2.8571 2.1429 0 1 1 5.71 0z" fill="#b0dd1c" transform="matrix(2.25 0 0 3 1634.3 -1293.3)"/>
      <path id="path8227" d="m-312.86 499.51a14.286 12.857 0 1 1 -28.57 0 14.286 12.857 0 1 1 28.57 0z" transform="translate(1020 221.43)" stroke="#000" stroke-width="2.3" fill="#5d6268"/>
      <path id="path9114" d="m-312.86 499.51a14.286 12.857 0 1 1 -28.57 0 14.286 12.857 0 1 1 28.57 0z" transform="translate(965.71 215.71)" stroke="#000" stroke-width="2.3" fill="#5d6268"/>
      <path id="path9116" d="m-312.86 499.51a14.286 12.857 0 1 1 -28.57 0 14.286 12.857 0 1 1 28.57 0z" transform="translate(1072.9 227.14)" stroke="#000" stroke-width="2.3" fill="#5d6268"/>
      <path id="path9118" d="m-312.86 499.51a14.286 12.857 0 1 1 -28.57 0 14.286 12.857 0 1 1 28.57 0z" transform="translate(1127.1 231.43)" stroke="#000" stroke-width="2.3" fill="#5d6268"/>
      <path id="path9120" d="m-312.86 499.51a14.286 12.857 0 1 1 -28.57 0 14.286 12.857 0 1 1 28.57 0z" transform="translate(1180 237.14)" stroke="#000" stroke-width="2.3" fill="#5d6268"/>
    </g>
  </g>
  <metadata>
    <rdf:RDF>
      <cc:Work>
        <dc:format>image/svg+xml</dc:format>
        <dc:type rdf:resource="http://purl.org/dc/dcmitype/StillImage"/>
        <cc:license rdf:resource="http://creativecommons.org/licenses/publicdomain/"/>
        <dc:publisher>
          <cc:Agent rdf:about="http://openclipart.org/">
            <dc:title>Openclipart</dc:title>
          </cc:Agent>
        </dc:publisher>
        <dc:title>monitor CRT</dc:title>
        <dc:date>2006-12-27T03:12:54</dc:date>
        <dc:description>clip art, clipart, colour, computer, contour, crt, device, hardware, image, media, monitor, office, outline, png, public domain, school, screen, svg, technology, </dc:description>
        <dc:source>http://openclipart.org/detail/2304/monitor-crt-by-machovka</dc:source>
        <dc:creator>
          <cc:Agent>
            <dc:title>Machovka</dc:title>
          </cc:Agent>
        </dc:creator>
        <dc:subject>
          <rdf:Bag>
            <rdf:li>clip art</rdf:li>
            <rdf:li>clipart</rdf:li>
            <rdf:li>colour</rdf:li>
            <rdf:li>computer</rdf:li>
            <rdf:li>contour</rdf:li>
            <rdf:li>crt</rdf:li>
            <rdf:li>device</rdf:li>
            <rdf:li>hardware</rdf:li>
            <rdf:li>image</rdf:li>
            <rdf:li>media</rdf:li>
            <rdf:li>monitor</rdf:li>
            <rdf:li>office</rdf:li>
            <rdf:li>outline</rdf:li>
            <rdf:li>png</rdf:li>
            <rdf:li>public domain</rdf:li>
            <rdf:li>school</rdf:li>
            <rdf:li>screen</rdf:li>
            <rdf:li>svg</rdf:li>
            <rdf:li>technology</rdf:li>
          </rdf:Bag>
        </dc:subject>
      </cc:Work>
      <cc:License rdf:about="http://creativecommons.org/licenses/publicdomain/">
        <cc:permits rdf:resource="http://creativecommons.org/ns#Reproduction"/>
        <cc:permits rdf:resource="http://creativecommons.org/ns#Distribution"/>
        <cc:permits rdf:resource="http://creativecommons.org/ns#DerivativeWorks"/>
      </cc:License>
    </rdf:RDF>
  </metadata>
</svg>
