<?xml version="1.0"?>
<svg xmlns:rdf="http://www.w3.org/1999/02/22-rdf-syntax-ns#" xmlns="http://www.w3.org/2000/svg" xmlns:cc="http://web.resource.org/cc/" xmlns:xlink="http://www.w3.org/1999/xlink" xmlns:dc="http://purl.org/dc/elements/1.1/" xmlns:svg="http://www.w3.org/2000/svg" id="svg2" viewBox="0 0 744.09 1052.4" version="1.0">
  <defs id="defs4">
    <linearGradient id="linearGradient7249">
      <stop id="stop7251" stop-color="#322929" stop-opacity=".11224" offset="0"/>
      <stop id="stop7253" offset=".5"/>
      <stop id="stop7255" stop-color="#fff" stop-opacity="0" offset="1"/>
    </linearGradient>
    <linearGradient id="linearGradient9269">
      <stop id="stop9271" stop-color="#373337" stop-opacity="0" offset="0"/>
      <stop id="stop9281" stop-color="#7d888e" offset=".5"/>
      <stop id="stop9273" stop-color="#747474" stop-opacity="0" offset="1"/>
    </linearGradient>
    <linearGradient id="linearGradient6142">
      <stop id="stop6144" stop-color="#d1f3ff" offset="0"/>
      <stop id="stop6146" stop-color="#b1b1b1" stop-opacity="0" offset="1"/>
    </linearGradient>
    <filter id="filter4009" y="-.17104" x="-.059577" width="1.1192" height="1.3421">
      <feGaussianBlur id="feGaussianBlur4011" stdDeviation="2.8495516"/>
    </filter>
    <filter id="filter4057" y="-.106" x="-.033719" width="1.0674" height="1.212">
      <feGaussianBlur id="feGaussianBlur4059" stdDeviation="0.93282623"/>
    </filter>
    <filter id="filter4401" y="-.45561" x="-.27827" width="1.5565" height="1.9112">
      <feGaussianBlur id="feGaussianBlur4403" stdDeviation="3.0603942"/>
    </filter>
    <filter id="filter5127" y="-.12255" x="-.044337" width="1.0887" height="1.2451">
      <feGaussianBlur id="feGaussianBlur5129" stdDeviation="1.8183083"/>
    </filter>
    <filter id="filter6184">
      <feGaussianBlur id="feGaussianBlur6186" stdDeviation="7.9837574"/>
    </filter>
    <filter id="filter6275">
      <feGaussianBlur id="feGaussianBlur6277" stdDeviation="4.4289678"/>
    </filter>
    <filter id="filter6373" y="-.056866" x="-.12972" width="1.2594" height="1.1137">
      <feGaussianBlur id="feGaussianBlur6375" stdDeviation="3.0371818"/>
    </filter>
    <filter id="filter7528" y="-1.4779" x="-.16263" width="1.3253" height="3.9557">
      <feGaussianBlur id="feGaussianBlur7530" stdDeviation="9.3011076"/>
    </filter>
    <filter id="filter7586" y="-.12984" x="-.084434" width="1.1689" height="1.2597">
      <feGaussianBlur id="feGaussianBlur7588" stdDeviation="5.163258"/>
    </filter>
    <filter id="filter7624" y="-.18668" x="-.075978" width="1.152" height="1.3734">
      <feGaussianBlur id="feGaussianBlur7626" stdDeviation="4.4509014"/>
    </filter>
    <filter id="filter7669" y="-.04452" x="-.70083" width="2.4017" height="1.089">
      <feGaussianBlur id="feGaussianBlur7671" stdDeviation="3.9195523"/>
    </filter>
    <filter id="filter7787" y="-.23882" x="-.12348" width="1.247" height="1.4776">
      <feGaussianBlur id="feGaussianBlur7789" stdDeviation="4.0151647"/>
    </filter>
    <filter id="filter7985" y="-.067697" x="-.10968" width="1.2194" height="1.1354">
      <feGaussianBlur id="feGaussianBlur7987" stdDeviation="10.988153"/>
    </filter>
    <filter id="filter8161" y="-.13602" x="-.021323" width="1.0426" height="1.272">
      <feGaussianBlur id="feGaussianBlur8163" stdDeviation="4.2548103"/>
    </filter>
    <filter id="filter8309" y="-.034183" x="-.685" width="2.37" height="1.0684">
      <feGaussianBlur id="feGaussianBlur8311" stdDeviation="5.132244"/>
    </filter>
    <filter id="filter9045" y="-.32836" x="-.081223" width="1.1624" height="1.6567">
      <feGaussianBlur id="feGaussianBlur9047" stdDeviation="4.2369643"/>
    </filter>
    <filter id="filter9061">
      <feGaussianBlur id="feGaussianBlur9063" stdDeviation="4.4114892"/>
    </filter>
    <filter id="filter9636" y="-.11556" x="-.099582" width="1.1992" height="1.2311">
      <feGaussianBlur id="feGaussianBlur9638" stdDeviation="1.0605353"/>
    </filter>
    <filter id="filter3732" y="-.18141" x="-.066827" width="1.1337" height="1.3628">
      <feGaussianBlur id="feGaussianBlur3734" stdDeviation="1.1849108"/>
    </filter>
    <filter id="filter7603" y="-.36548" x="-.069528" width="1.1391" height="1.731">
      <feGaussianBlur id="feGaussianBlur7605" stdDeviation="20.15727"/>
    </filter>
    <filter id="filter7804" y="-.030477" x="-.33095" width="1.6619" height="1.061">
      <feGaussianBlur id="feGaussianBlur7806" stdDeviation="4.6491721"/>
    </filter>
    <filter id="filter7996">
      <feGaussianBlur id="feGaussianBlur7998" stdDeviation="1.2641931"/>
    </filter>
    <filter id="filter8133">
      <feGaussianBlur id="feGaussianBlur8135" stdDeviation="4.9130815"/>
    </filter>
    <radialGradient id="radialGradient2641" gradientUnits="userSpaceOnUse" cy="-7748.4" cx="-4125.9" gradientTransform="matrix(.98632 .057630 .018448 .45934 167.77 -3971.2)" r="347.9">
      <stop id="stop7579" stop-color="#594c36" offset="0"/>
      <stop id="stop7581" stop-color="#070000" stop-opacity="0" offset="1"/>
    </radialGradient>
    <radialGradient id="radialGradient2643" xlink:href="#linearGradient6142" gradientUnits="userSpaceOnUse" cy="-8243.2" cx="-4357.3" gradientTransform="matrix(1.2381 3.1549 -1.6534 .64885 -12592 10768)" r="111.1"/>
    <radialGradient id="radialGradient2647" gradientUnits="userSpaceOnUse" cy="-8363.9" cx="-4524.8" gradientTransform="matrix(.56717 .14162 -1.0994 4.4027 -11000 29356)" r="111.1">
      <stop id="stop7609" stop-color="#f3ffff" offset="0"/>
      <stop id="stop7611" stop-color="#b1b1b1" stop-opacity="0" offset="1"/>
    </radialGradient>
    <linearGradient id="linearGradient2651" y2="-8571.6" gradientUnits="userSpaceOnUse" y1="-8396.1" x2="-4125.1" x1="-4190.6">
      <stop id="stop2855" stop-color="#cfe9ff" stop-opacity=".73725" offset="0"/>
      <stop id="stop2857" stop-color="#ccc" stop-opacity="0" offset="1"/>
    </linearGradient>
    <linearGradient id="linearGradient2675" x1="-4271.8" spreadMethod="reflect" gradientUnits="userSpaceOnUse" y1="-8375.5" gradientTransform="matrix(1.0258 0 0 1 70.454 -13.561)" x2="-4070.9" y2="-8339.3">
      <stop id="stop8095" stop-color="#e0e7f0" offset="0"/>
      <stop id="stop8093" stop-color="#c1cfe2" stop-opacity="0" offset="1"/>
    </linearGradient>
    <radialGradient id="radialGradient2679" gradientUnits="userSpaceOnUse" cy="-8896.4" cx="-4260.6" gradientTransform="matrix(.37103 1.1016 -1.3643 .45950 -14829 -125.78)" r="105.49">
      <stop id="stop6223" stop-color="#edf7ff" offset="0"/>
      <stop id="stop6225" stop-color="#b1b1b1" stop-opacity="0" offset="1"/>
    </radialGradient>
    <linearGradient id="linearGradient2681" y2="-9066.3" gradientUnits="userSpaceOnUse" y1="-9066.3" x2="-4219" x1="-4120.3">
      <stop id="stop6303" stop-color="#b6dbe8" offset="0"/>
      <stop id="stop6305" stop-color="#b3ae99" stop-opacity="0" offset="1"/>
    </linearGradient>
    <linearGradient id="linearGradient2683" y2="-8911.5" gradientUnits="userSpaceOnUse" y1="-8959.2" x2="-4213.4" x1="-4108.8">
      <stop id="stop7536" stop-color="#1d1d1d" offset="0"/>
      <stop id="stop7538" stop-color="#1d1d1d" stop-opacity="0" offset="1"/>
    </linearGradient>
    <radialGradient id="radialGradient2687" gradientUnits="userSpaceOnUse" cy="-7989.6" cx="-4156.3" gradientTransform="matrix(2.5675 -1.9871 1.5365 1.9853 18761 -269.03)" r="120.22">
      <stop id="stop7945" stop-color="#4c1f1f" offset="0"/>
      <stop id="stop7947" stop-color="#1d1d1d" stop-opacity="0" offset="1"/>
    </radialGradient>
    <linearGradient id="linearGradient2702" x1="-4388.5" gradientUnits="userSpaceOnUse" y1="-8767.4" gradientTransform="matrix(.58921 0 0 .58921 2731.3 5468.4)" x2="-4321.8" y2="-8760">
      <stop id="stop8039" stop-color="#6a6a6a" stop-opacity=".83673" offset="0"/>
      <stop id="stop8041" stop-color="#fff" stop-opacity="0" offset="1"/>
    </linearGradient>
    <linearGradient id="linearGradient2705" x1="-4221.1" gradientUnits="userSpaceOnUse" y1="-8689.7" gradientTransform="matrix(.58921 0 0 .58921 2731.3 5468.4)" x2="-4321.8" y2="-8650.1">
      <stop id="stop8020" stop-color="#fff" offset="0"/>
      <stop id="stop8022" stop-color="#fff" stop-opacity="0" offset="1"/>
    </linearGradient>
    <linearGradient id="linearGradient2708" x1="-4427.4" gradientUnits="userSpaceOnUse" y1="-8491.9" gradientTransform="matrix(.58921 0 0 .58921 2731.3 5468.4)" x2="-4141.1" y2="-8443.4">
      <stop id="stop7243" stop-color="#322929" stop-opacity="0" offset="0"/>
      <stop id="stop7245" stop-color="#fff" offset=".5"/>
      <stop id="stop7247" stop-color="#fff" stop-opacity="0" offset="1"/>
    </linearGradient>
    <linearGradient id="linearGradient2716" x1="-2006.8" gradientUnits="userSpaceOnUse" y1="433.53" gradientTransform="matrix(.15383 0 0 .071399 505 549.4)" x2="-1846" y2="424.36">
      <stop id="stop7400" offset="0"/>
      <stop id="stop7402" stop-opacity="0" offset="1"/>
    </linearGradient>
    <linearGradient id="linearGradient2719" x1="659.89" gradientUnits="userSpaceOnUse" y1="232.56" gradientTransform="matrix(.58921 0 0 .58921 2704.4 5479)" x2="660.67" y2="232.56">
      <stop id="stop4707" stop-color="#fff" offset="0"/>
      <stop id="stop4709" stop-color="#ffbe1e" stop-opacity="0" offset="1"/>
    </linearGradient>
    <linearGradient id="linearGradient2742" x1="-3817.7" gradientUnits="userSpaceOnUse" y1="-8899.5" gradientTransform="matrix(.58921 0 0 .58921 2731.3 5468.4)" x2="-3761.5" y2="-8833.6">
      <stop id="stop7633" stop-color="#07000b" offset="0"/>
      <stop id="stop7635" stop-color="#07000b" stop-opacity="0" offset="1"/>
    </linearGradient>
    <radialGradient id="radialGradient2753" gradientUnits="userSpaceOnUse" cy="-8694.5" cx="-4004.8" gradientTransform="matrix(1.1804 7.916e-7 -.0000022808 3.4065 5098.9 29963)" r="109.55">
      <stop id="stop4661" stop-color="#b3ac8a" stop-opacity=".62245" offset="0"/>
      <stop id="stop4663" stop-color="#8e8e8e" stop-opacity="0" offset="1"/>
    </radialGradient>
    <linearGradient id="linearGradient2772" x1="-4102.3" xlink:href="#linearGradient7249" gradientUnits="userSpaceOnUse" y1="-8443.4" gradientTransform="matrix(.58921 0 0 .58921 2731.3 5468.4)" x2="-3979.7" y2="-8443.4"/>
    <linearGradient id="linearGradient2775" x1="-4351" gradientUnits="userSpaceOnUse" y1="-8443.4" gradientTransform="matrix(.58921 0 0 .58921 2731.3 5468.4)" x2="-4239.8" y2="-8443.4">
      <stop id="stop9439" stop-color="#fff" stop-opacity="0" offset="0"/>
      <stop id="stop9441" stop-color="#fff" offset=".5"/>
      <stop id="stop9437" stop-color="#fff" stop-opacity="0" offset="1"/>
    </linearGradient>
    <linearGradient id="linearGradient2778" x1="-3562.7" xlink:href="#linearGradient9269" spreadMethod="reflect" gradientUnits="userSpaceOnUse" y1="-8443.4" gradientTransform="matrix(.58921 0 0 .58921 2731.3 5468.4)" x2="-3957.2" y2="-8443.4"/>
    <linearGradient id="linearGradient2781" x1="-4351" xlink:href="#linearGradient9269" gradientUnits="userSpaceOnUse" y1="-8443.4" gradientTransform="matrix(.58921 0 0 .58921 2731.3 5468.4)" x2="-4302.7" y2="-8443.4"/>
    <linearGradient id="linearGradient2784" x1="-4351" gradientUnits="userSpaceOnUse" y1="-8443.4" gradientTransform="matrix(.58921 0 0 .58921 2731.3 5468.4)" x2="-4302.7" y2="-8443.4">
      <stop id="stop9232" stop-color="#687071" offset="0"/>
      <stop id="stop9234" stop-color="#747474" stop-opacity="0" offset="1"/>
    </linearGradient>
    <radialGradient id="radialGradient2787" gradientUnits="userSpaceOnUse" cy="-8660.6" cx="-4044.5" gradientTransform="matrix(.60276 -.018326 .0076203 .25064 2851.3 2543)" r="248.75">
      <stop id="stop9214" stop-color="#1f1f1f" offset="0"/>
      <stop id="stop9216" stop-color="#443232" stop-opacity="0" offset="1"/>
    </radialGradient>
    <linearGradient id="linearGradient2790" x1="-4395" gradientUnits="userSpaceOnUse" y1="-8449.7" gradientTransform="matrix(.58921 0 0 .58921 2731.3 5468.4)" x2="-3837.8" y2="-8443.4">
      <stop id="stop4614" stop-color="#95a7b4" stop-opacity=".70588" offset="0"/>
      <stop id="stop4616" stop-color="#fff" offset=".13455"/>
      <stop id="stop4618" stop-color="#ececec" offset=".22425"/>
      <stop id="stop4620" stop-color="#b2afb3" stop-opacity=".7098" offset=".40365"/>
      <stop id="stop4622" stop-color="#97a7be" stop-opacity=".2551" offset=".51494"/>
      <stop id="stop9202" stop-color="#9199a4" stop-opacity=".24706" offset=".62623"/>
      <stop id="stop9204" stop-color="#8e9297" stop-opacity=".24314" offset=".68188"/>
      <stop id="stop9206" stop-color="#8c8e91" stop-opacity=".24314" offset=".7097"/>
      <stop id="stop4624" stop-color="#8b8b8b" stop-opacity=".2449" offset=".73752"/>
      <stop id="stop4626" stop-opacity=".60204" offset=".875"/>
      <stop id="stop4628" stop-color="#0f0f19" stop-opacity=".27059" offset=".9375"/>
      <stop id="stop4630" stop-color="#171726" stop-opacity=".13333" offset=".96875"/>
      <stop id="stop4632" stop-color="#1b1b2c" stop-opacity=".066667" offset=".98438"/>
      <stop id="stop4634" stop-color="#1f1f33" stop-opacity="0" offset="1"/>
    </linearGradient>
    <linearGradient id="linearGradient2794" x1="-4471.5" gradientUnits="userSpaceOnUse" y1="-8842.9" gradientTransform="matrix(.58921 0 0 .58921 2731.3 5468.4)" x2="-4379.9" y2="-8755.6">
      <stop id="stop8029" stop-color="#b2b9ca" offset="0"/>
      <stop id="stop8031" stop-color="#999faf" stop-opacity="0" offset="1"/>
    </linearGradient>
    <radialGradient id="radialGradient2797" gradientUnits="userSpaceOnUse" cy="-8235.5" cx="-4389.8" gradientTransform="matrix(-1.1515 1.1178 -1.9221 -1.9801 -20742 -10858)" r="40.673">
      <stop id="stop6126" stop-color="#b8cbdb" stop-opacity=".80612" offset="0"/>
      <stop id="stop6128" stop-color="#8f6e70" stop-opacity="0" offset="1"/>
    </radialGradient>
    <linearGradient id="linearGradient2801" x1="-4388.5" gradientUnits="userSpaceOnUse" y1="-8657.5" gradientTransform="matrix(.58921 0 0 .58921 2731.3 5468.4)" x2="-4321.8" y2="-8664.6">
      <stop id="stop9168" stop-color="#d3e3ef" offset="0"/>
      <stop id="stop9170" stop-color="#c1cfe2" stop-opacity="0" offset="1"/>
    </linearGradient>
    <linearGradient id="linearGradient2805" x1="-4011.9" gradientUnits="userSpaceOnUse" y1="-8703.1" gradientTransform="matrix(.58921 0 0 .58921 2731.3 5468.4)" x2="-4111.3" y2="-8554.6">
      <stop id="stop7898" stop-color="#5a6671" stop-opacity=".40784" offset="0"/>
      <stop id="stop7900" stop-color="#a3c1c2" stop-opacity="0" offset="1"/>
    </linearGradient>
    <linearGradient id="linearGradient2811" x1="-4260" xlink:href="#linearGradient7249" gradientUnits="userSpaceOnUse" y1="-7967.8" gradientTransform="matrix(.58921 0 0 .58921 2731.3 5468.4)" x2="-4296.5" y2="-8215.9"/>
    <radialGradient id="radialGradient2816" xlink:href="#linearGradient6142" gradientUnits="userSpaceOnUse" cy="-8316.9" cx="-4255.2" gradientTransform="matrix(.19144 -.55724 1.5312 .52603 13804 2570.4)" r="111.1"/>
    <filter id="filter3884">
      <feGaussianBlur id="feGaussianBlur3886" stdDeviation="2.274059"/>
    </filter>
    <filter id="filter3910">
      <feGaussianBlur id="feGaussianBlur3912" stdDeviation="1.546588"/>
    </filter>
    <filter id="filter3994">
      <feGaussianBlur id="feGaussianBlur3996" stdDeviation="0.3397004"/>
    </filter>
  </defs>
  <path id="path2499" fill-rule="evenodd" fill="#837f7f" d="m73.607 210.66l64.113-16.19 10.36-13.6 144.42-22.02-17.49-71.885 40.8-11.009 41.45 9.714-14.25 78.36 56.99 3.24 51.8 15.54 12.96-8.42 94.55-3.24v46.63l-8.42 27.2-55.7 18.78-31.64 182.53-11.28 26.74-20.25 18.09-1.44 25.63-119.95 21.59-137.29-29.79-3.89-9.71-2.5-51.44-6.37-18.54-13.15-40.11-25.25-31.74-48.573-90.66-33.028-15.54-3.238-11.66 18.133-18.13 14.895-5.83 3.238-4.53z"/>
  <path id="path2539" fill-rule="evenodd" fill="#a1a1a1" d="m364.49 468.86s28.43-1.04 55.68-5.8c27.63-4.82 40.97-14.64 40.97-14.64l32.45-218.78-121.19 25.92-7.91 213.3z"/>
  <path id="path2565" fill-rule="evenodd" fill="url(#radialGradient2753)" d="m364.49 468.86s28.43-1.04 55.68-5.8c27.63-4.82 40.97-14.64 40.97-14.64l32.45-218.78-121.19 25.92-7.91 213.3z"/>
  <path id="path2505" fill-rule="evenodd" fill="url(#linearGradient2805)" d="m225.08 463.31s38.66 13.14 64.36 14.24c25.72 1.11 74.05-9.15 74.05-9.15l4.04-210.49s-151.69-12.68-155.58-7.19c-3.49 4.93 13.13 212.59 13.13 212.59z"/>
  <path id="path2479" opacity=".75969" d="m-3696.8-7734.1c0 42.3-155.7 76.7-347.9 76.7-192.1 0-347.8-34.4-347.8-76.7 0-42.4 155.7-76.8 347.8-76.8 192.2 0 347.9 34.4 347.9 76.8z" fill-rule="evenodd" transform="matrix(.86245 -.087169 0 .95395 3929.3 7774.3)" filter="url(#filter7603)" stroke-width="0" fill="url(#radialGradient2641)"/>
  <path id="path2481" d="m-3698.4-7725.6c-11.9 31.7-89 59.4-202.3 72.6-113.2 13.1-245.4 9.8-346.5-8.7-101.2-18.6-155.9-49.5-143.6-81.2" fill-rule="evenodd" transform="matrix(.53412 0 0 .95395 2476.9 8100.6)" filter="url(#filter9061)" stroke-width="0" fill="#1d0f0f"/>
  <path id="path2483" stroke-width="0" fill-rule="evenodd" fill="#625d5d" d="m314.86 600.58c-88.77 0-155.82-45.93-155.82-81.35 0-13.71 14.24-5.54 14.31-25.97 0 0 264.64-7.48 280.59 9.55 12.12 12.94 17.53 21.48 18.9 37.03 2 22.64-82.35 55.87-157.98 60.74z"/>
  <path id="path2485" fill-rule="evenodd" fill="#b5b5b5" d="m158.73 517.86l-27.55 194.15s0.31 0.63 6.06 17.93c5.74 17.3 17.31 27.68 17.31 27.68l19.15-158.92-19.34 159.33s17.65 13.43 45.24 22.93c27.78 9.58 78.74 13.34 79.99 13.76l7.79-218.38s-37.31-19.28-54.96-22c-27.81-4.28-51.67-0.88-53.31-0.63v-0.03s-3.81-17.18-8.38-23.42-12-12.4-12-12.4zm313.43 21.01s-12.21 0.39-26.88 6.43c-25.57 10.54-36.75 27.36-36.75 27.36l13.94 213.57s26.92-11.65 47.14-26.37c23.65-17.22 31.39-26.14 31.39-26.14l-28.84-194.85zm-125.46 27.36c-25.72 0-59.09 9.65-59.09 9.65l-8.13 218.97s51.02 3.01 82.52-0.74c39.39-4.68 60.4-8.25 60.4-8.25l-13.74-213.5s-36.24-6.13-61.96-6.13z"/>
  <path id="path2487" fill-rule="evenodd" fill="#cdcfd1" d="m179.04 554.11s23.93-3.87 52.78 0.57c17.64 2.72 54.96 22.01 54.96 22.01l-6.96 218.37s-52.21-4.19-79.99-13.76c-27.59-9.51-43.98-23.34-43.98-23.34l23.19-203.85z"/>
  <path id="path2489" d="m-4331.8-8340.5s40.6-6.6 89.6 0.9c29.9 4.7 93.3 37.4 93.3 37.4l-11.8 370.6s-88.6-7.1-135.8-23.3c-46.8-16.2-74.6-39.6-74.6-39.6l39.3-346z" fill-rule="evenodd" transform="matrix(.58921 0 0 .58921 2731.3 5468.4)" filter="url(#filter8133)" fill="url(#radialGradient2643)"/>
  <path id="path2491" fill-rule="evenodd" fill="url(#radialGradient2816)" d="m179.04 554.11s23.93-3.87 52.78 0.57c17.64 2.72 54.96 22.01 54.96 22.01l-6.96 218.37s-52.21-4.19-79.99-13.76c-27.59-9.51-43.98-23.34-43.98-23.34l23.19-203.85z"/>
  <path id="path2493" d="m-4331.8-8340.5s40.6-6.6 89.6 0.9c29.9 4.7 93.3 37.4 93.3 37.4l-11.8 370.6s-88.6-7.1-135.8-23.3c-46.8-16.2-74.6-39.6-74.6-39.6l39.3-346z" fill-rule="evenodd" transform="matrix(.58921 0 0 .58921 2731.3 5468.4)" filter="url(#filter6184)" fill="url(#radialGradient2647)"/>
  <path id="path2495" opacity=".30233" fill-rule="evenodd" fill="#fff" d="m179.04 554.11s23.93-3.87 52.78 0.57c17.64 2.72 54.96 22.01 54.96 22.01l-6.96 218.37s-52.21-4.19-79.99-13.76c-27.59-9.51-43.98-23.34-43.98-23.34l23.19-203.85z"/>
  <path id="path2497" opacity=".2393" fill-rule="evenodd" fill="url(#linearGradient2811)" d="m179.04 554.11s23.93-3.87 52.78 0.57c17.64 2.72 54.96 22.01 54.96 22.01l-6.96 218.37s-52.21-4.19-79.99-13.76c-27.59-9.51-43.98-23.34-43.98-23.34l23.19-203.85z"/>
  <path id="path2501" fill-rule="evenodd" fill="#707070" d="m225.08 463.31s38.66 13.14 64.36 14.24c25.72 1.11 74.05-9.15 74.05-9.15l4.04-210.49s-151.69-12.68-155.58-7.19c-3.49 4.93 13.13 212.59 13.13 212.59z"/>
  <path id="path2503" d="m-4253.6-8494.6s65.6 22.3 109.2 24.1c43.6 1.9 125.7-15.5 125.7-15.5l6.8-357.2s-257.4-21.6-264-12.2c-5.9 8.3 22.3 360.8 22.3 360.8z" fill-rule="evenodd" transform="matrix(.58921 0 0 .58921 2731.3 5468.4)" filter="url(#filter7996)" fill="url(#linearGradient2651)"/>
  <path id="path2507" fill-rule="evenodd" fill-opacity=".73856" fill="#d7dee7" d="m145.63 385.73s6.96 30.64 13.7 46.94c5.32 12.86 10.9 15.34 10.9 15.34l54.03 15.67-14.4-214.85-58.55-15.81-5.68 152.71z"/>
  <path id="path2509" fill-rule="evenodd" fill="url(#linearGradient2801)" d="m145.63 385.73s6.96 30.64 13.7 46.94c5.32 12.86 10.9 15.34 10.9 15.34l54.03 15.67-14.4-214.85-58.55-15.81-5.68 152.71z"/>
  <path id="path2511" fill-rule="evenodd" fill="#b1b1b1" d="m158.95 518.21s7.44 6.15 12.01 12.39 8.38 23.41 8.38 23.41l-24.55 203.95s-11.57-10.37-17.32-27.67c-5.74-17.29-6.06-17.94-6.06-17.94l27.54-194.14z"/>
  <path id="path2513" fill-rule="evenodd" fill="url(#radialGradient2797)" d="m158.95 518.21s7.44 6.15 12.01 12.39 8.38 23.41 8.38 23.41l-24.55 203.95s-11.57-10.37-17.32-27.67c-5.74-17.29-6.06-17.94-6.06-17.94l27.54-194.14z"/>
  <path id="path2515" fill-rule="evenodd" fill="url(#linearGradient2794)" d="m150.68 233.88l-6.58 151.35-11.78-8.26-58.492-107.22c22.675-19.31 47.232-33.91 76.852-35.87z"/>
  <path id="path2517" fill-rule="evenodd" fill="#757584" d="m167.71 446.42c54.08 31.04 96.62 32.89 143.36 32.96 49.34 0.08 99.98-3.26 149.76-26.29l-2.5 49.68c-35.27 27.46-100.08 37.42-149.62 37.78-48.21 0.34-121.66-11.13-141-44.45v-49.68z"/>
  <path id="path2519" fill-rule="evenodd" fill="url(#linearGradient2790)" d="m167.71 446.42c54.08 31.04 96.62 32.89 143.36 32.96 49.34 0.08 99.98-3.26 149.76-26.29l-2.5 49.68c-35.27 27.46-100.08 37.42-149.62 37.78-48.21 0.34-121.66-11.13-141-44.45v-49.68z"/>
  <path id="path2521" fill-rule="evenodd" fill="url(#radialGradient2787)" d="m167.71 446.42c54.08 31.04 96.62 32.89 143.36 32.96 49.34 0.08 99.98-3.26 149.76-26.29l-2.5 49.68c-35.27 27.46-100.08 37.42-149.62 37.78-48.21 0.34-121.66-11.13-141-44.45v-49.68z"/>
  <path id="path2523" fill-rule="evenodd" fill="url(#linearGradient2784)" d="m167.71 446.42c54.08 31.04 96.62 32.89 143.36 32.96 49.34 0.08 99.98-3.26 149.76-26.29l-2.5 49.68c-35.27 27.46-100.08 37.42-149.62 37.78-48.21 0.34-121.66-11.13-141-44.45v-49.68z"/>
  <path id="path2525" fill-rule="evenodd" fill="url(#linearGradient2781)" d="m167.71 446.42c54.08 31.04 96.62 32.89 143.36 32.96 49.34 0.08 99.98-3.26 149.76-26.29l-2.5 49.68c-35.27 27.46-100.08 37.42-149.62 37.78-48.21 0.34-121.66-11.13-141-44.45v-49.68z"/>
  <path id="path2527" fill-rule="evenodd" fill="url(#linearGradient2778)" d="m167.71 446.42c54.08 31.04 96.62 32.89 143.36 32.96 49.34 0.08 99.98-3.26 149.76-26.29l-2.5 49.68c-35.27 27.46-100.08 37.42-149.62 37.78-48.21 0.34-121.66-11.13-141-44.45v-49.68z"/>
  <path id="path2529" fill-rule="evenodd" fill="url(#linearGradient2775)" d="m167.71 446.42c54.08 31.04 96.62 32.89 143.36 32.96 49.34 0.08 99.98-3.26 149.76-26.29l-2.5 49.68c-35.27 27.46-100.08 37.42-149.62 37.78-48.21 0.34-121.66-11.13-141-44.45v-49.68z"/>
  <path id="path2531" opacity=".31008" fill-rule="evenodd" fill="url(#linearGradient2772)" d="m167.71 446.42c54.08 31.04 96.62 32.89 143.36 32.96 49.34 0.08 99.98-3.26 149.76-26.29l-2.5 49.68c-35.27 27.46-100.08 37.42-149.62 37.78-48.21 0.34-121.66-11.13-141-44.45v-49.68z"/>
  <path id="path2533" d="m-4377.8-8424.4c45.4 30.2 172.4 115.2 469.5 14.3 14.3-4.8-20.3 12.6-8.6 9.2-258.2 96.7-405.6 40.2-457.6-3.4l-3.3-20.1z" fill-rule="evenodd" transform="matrix(.57438 0 0 .58921 2690.9 5476.4)" filter="url(#filter8161)" fill="url(#linearGradient2675)"/>
  <path id="path2535" fill-rule="evenodd" fill="#918c89" d="m408.76 571.16s11.18-16.83 36.75-27.37c14.67-6.04 26.9-6.43 26.9-6.43l28.82 194.84s-7.74 8.93-31.39 26.16c-20.21 14.72-47.14 26.37-47.14 26.37l-13.94-213.57z"/>
  <path id="path2537" fill-rule="evenodd" fill="#868686" d="m287.84 576.23s33.38-9.66 59.1-9.66 60.7 4.89 60.7 4.89l14.99 214.75s-21.02 3.56-60.4 8.25c-31.51 3.74-81.26-0.1-81.26-0.1l6.87-218.13z"/>
  <path id="path2541" fill-rule="evenodd" fill="#8e8e8e" d="m493.84 216.58l27.14-1.77 39.14 1.18-6.74 26.17-64.84 23.57 5.3-49.15z"/>
  <path id="path2543" fill-rule="evenodd" fill-opacity=".73856" fill="#544040" d="m513.16 177.88l4.23 6.13-15.78-5.21 11.55-0.92z"/>
  <path id="path2545" fill-rule="evenodd" fill-opacity=".38824" fill="#241c1c" d="m69.861 231.18c-24.8 9.92-24.748 16.29-29.018 17.09l-1.814-6.28s6.284-8.42 14.256-15.22c7.973-6.8 17.634-11.97 17.634-11.97l2.854 4.81 27.707-0.73-6.833 3.95-10.192 2.01 2.014 4.61"/>
  <path id="path2547" stroke-width="0" fill-rule="evenodd" fill="#a5a4a1" d="m109.96 210.7l70.7-17.67-24.74 26.51-56.081 10.22-2.844-6.68 12.965-12.38z"/>
  <path id="path2549" stroke-width="0" fill-rule="evenodd" fill="#88877f" d="m148.84 180.06l130.81-19.44-97.81 32.41-70.44 17.31-7.44-5.33 33.1-11.4 11.78-13.55z"/>
  <path id="path2551" d="m-4511-8923.4s25.5-9.5 56-4c20.2 3.7-11 19-11 19s-31.8 1.8-43-2c-11.3-3.7-2-13-2-13z" fill-rule="evenodd" transform="matrix(.58921 0 0 .58921 2731.3 5468.4)" filter="url(#filter4057)" stroke-width="0" fill="#fff"/>
  <path id="path2553" d="m-4370.3-8900.2c18.1 2.2 24.4 9.2 68.1 20.7 34.1 9 35.9 18.7 24.1 18.9-13.4 0.2-37.8-8.1-37.8-8.1-4.4 8.8-31-9-58.7-19.6-18.3-6.9-13.8-14.1 4.3-11.9z" fill-opacity=".38824" fill-rule="evenodd" transform="matrix(.58921 0 0 .58921 2731.3 5468.4)" filter="url(#filter4009)" stroke-width="0" fill="#fff"/>
  <path id="path2555" fill-rule="evenodd" fill="#7e7b7b" d="m472.8 189.99l20.4 10.61 6.76 24 10.41 1.17c1.05 13.73 13.17 14.12 24.19 14.12 11.73 0 25.33-16.17 25.33-31.16 0-13.26-10.14-14.72-16.44-17.1 0 0-57.23-2.51-70.65-1.64z"/>
  <path id="path2557" fill-rule="evenodd" fill="#a5a5a5" d="m451.42 181.82l15.33-5.5 86.89-5.11 4.3 27.35s-0.61-8.69-19.88-10.01c-19.26-1.33-57.18 4.71-57.18 4.71l-29.46-11.44z"/>
  <path id="path2559" d="m-3798.4-8895.5l-211.4 46.6-273.6-9.3-99.5-31.1-115-3.1 21.8-18.7-34.2 6.2v3.1" transform="matrix(.58921 0 0 .58921 2731.3 5468.4)" filter="url(#filter3884)" stroke="#000" stroke-width="6.9857" fill="none"/>
  <path id="path2561" d="m-4534.2-8904s10.2-7.2 22.3-3c8 2.7-4.4 14.5-4.4 14.5s-12.6 1.3-17.1-1.6c-4.4-2.8-0.8-9.9-0.8-9.9z" fill-rule="evenodd" transform="matrix(.44199 0 0 .42852 2090.5 4040.7)" filter="url(#filter4401)" stroke-width="0" fill="#fffaea"/>
  <path id="path2563" fill-rule="evenodd" fill="#aeaca2" d="m460.6 227.57l-89.44 19.01-159.38-8.64-55.59-15.75 16.85-26.56 103.18-35.04-123.6 18.81 133.37-19.79 108.37 9.44 54.21 13.73 53.52 19.79-9.87 16.88-31.62 8.12z"/>
  <path id="path2567" fill-rule="evenodd" fill="#1d1d1d" d="m317.05 67.014l-27.68 10.367-15.95 6.064 0.53 6.827-0.14-0.043 0.16 0.435 0.02 0.087 0.02 0.011 18.12 73.208s21.2 5.23 27.67 5.07c6.48-0.15 21.62-3.21 21.62-3.21l18.04-75.601-1.08 0.261 1.51-0.577-0.56-7.306-16.86-5.749-25.42-9.844z"/>
  <path id="path2569" d="m-4417.7-8903.6l89 24.9 0.6 5.9" transform="matrix(.58921 -.0094011 0 .58921 2759.1 5430.5)" filter="url(#filter5127)" stroke="#fff" stroke-linecap="round" stroke-width="9" fill="none"/>
  <path id="path2571" opacity=".74419" d="m-4271.3-8877.8l98.3-81-182.7 54.3 84.4 26.7z" fill-rule="evenodd" transform="matrix(.58921 0 0 .58921 2731.3 5468.4)" filter="url(#filter6275)" fill="url(#radialGradient2679)"/>
  <path id="path2573" opacity=".74419" d="m-4120.3-9002.2l-15.5-117.2-40.7-11 38.4 128.2h17.8z" fill-rule="evenodd" transform="matrix(.58921 0 0 .58921 2731.3 5468.4)" filter="url(#filter6373)" fill="url(#linearGradient2681)"/>
  <path id="path2575" d="m-4206.5-9146.2l37.8 6.7 51.1 2.2 44.4-8.9-2.2-2.2" transform="matrix(.59074 0 0 .48983 2762.3 4561.6)" filter="url(#filter7528)" stroke="#fff" stroke-width="4" fill="none"/>
  <path id="path2577" opacity=".67829" d="m-4096.7-8905.2l47-9.7 27.1-5.7-0.9-6.4 0.2 0.1-0.3-0.4v-0.1c-18.3-12.2-30.2-32.7-30.8-68.5 0 0-35.9-24.9-46.9-24.7-11 0.1-36.7 9.6-36.7 9.6l-30.6 84.1 1.8-0.3-2.6 0.6 1 6.8 28.6 5.4 43.1 9.2z" fill-rule="evenodd" transform="matrix(.58921 0 0 .58921 2731.3 5468.4)" filter="url(#filter7586)" fill="url(#linearGradient2683)"/>
  <path id="path2579" d="m-3820.3-8954.7l41.8-4h55.2s26.1 2 33.9 14.2c7.7 12.2 6.6 37.8 6.6 37.8s-1.6 1.7-2.2 2.2" transform="matrix(.58921 0 0 .58921 2731.3 5468.4)" filter="url(#filter7624)" stroke="#fff" stroke-width="3" fill="none"/>
  <path id="path2581" fill-rule="evenodd" fill="#1d1d1d" d="m607.22 165.53c11.41 3.27 63.74 69.97 64.42 82.65 0.6 11.34-68.28 196.25-68.28 196.25s-65.45 22.23-71.12 21.11c-8.07 0-17.94-41.27-13.11-51.16 2.22-4.57 26.74 9.32 26.74 9.32s19.66-0.66 29.16-17.17c11.4-19.8 3.45-38.31 10.99-77.95 10.89-57.24 29.27-63.79 26.87-78.91-1.57-9.91-10.83-15.77-23.27-16.31-10.29-0.45-37.93 10.67-37.93 10.67s5.23-15.5 6.97-26.44c1.74-10.93-0.02-17.31-0.02-17.31l-3.78-29.97"/>
  <path id="path2583" opacity=".67829" fill-rule="evenodd" fill="url(#linearGradient2742)" d="m495.79 216.41l13.9 0.54c0.79 12.39 11.57 18.79 24.58 23.86l-0.54 9.84-36.09 12.95-1.85-47.19z"/>
  <path id="path2585" d="m-4387.8-8662.4l9.4-207.3" transform="matrix(.58921 0 0 .58921 2731.3 5468.4)" filter="url(#filter7669)" stroke="#dbe0e5" stroke-width="4" fill="none"/>
  <path id="path2587" d="m-3863.3-8970.2l41.6 19.6 35.4 14.2" transform="matrix(.58921 0 0 .58921 2731.3 5468.4)" filter="url(#filter7787)" stroke="#000" stroke-width="5.8" fill="none"/>
  <path id="path2589" d="m-4147.1-8303s56.6-16.4 100.3-16.4c43.6 0 103 8.3 103 8.3l25.4 364.5s-35.6 6-102.5 14c-53.4 6.3-137.9-0.2-137.9-0.2l11.7-370.2z" fill-rule="evenodd" transform="matrix(.58921 0 0 .58921 2731.3 5468.4)" filter="url(#filter7985)" fill="url(#radialGradient2687)"/>
  <path id="path2591" d="m-4007.8-8841.4l-6.2 348.6" transform="matrix(.58921 0 0 .58921 2731.3 5468.4)" filter="url(#filter8309)" stroke="#797979" stroke-width="11.7" fill="none"/>
  <path id="path2593" stroke-linejoin="round" d="m-4472.6-8898l91.1-6.2 31.4-22v0" transform="matrix(.58921 0 0 .58921 2731.3 5468.4)" filter="url(#filter9045)" stroke="#000" stroke-linecap="round" stroke-width="2.7" fill="none"/>
  <path id="path2595" d="m-3792.7-8976.3l-34.1-0.2 46.9 15.9-12.8-15.7z" fill-opacity=".45914" fill-rule="evenodd" transform="matrix(.58921 0 0 .58921 2731.3 5468.4)" filter="url(#filter3732)"/>
  <path id="path2597" d="m-3710-8910.3l-33.2-3c0.4 11.6 7.2 15.6 14.4 16.4 13.5 1.6 18.8-13.4 18.8-13.4z" fill-opacity=".41245" fill-rule="evenodd" transform="matrix(.58921 0 0 .58921 2731.3 5468.4)" filter="url(#filter9636)"/>
  <path id="path2601" fill-rule="evenodd" fill="#b78e2a" d="m244.54 572.54l-1.61 24.36-17.78 11.06-21.69-3.37-8.18-14.16 1.49-22.2 13.33-12.84 21.53 1.33 12.91 15.82z"/>
  <path id="path2605" fill-rule="evenodd" fill-opacity=".54118" fill="#c8b79b" d="m224.35 555.91c3.48 5.92 7.16 11.87 13.06 17.99l8.43 0.67-12.52-16.81-8.97-1.85z"/>
  <path id="path2607" fill-rule="evenodd" fill="#656528" d="m218.9 567.27c7.22 0.57 12.55 7.7 11.9 15.93-0.65 8.22-7.03 14.43-14.24 13.86-0.5-0.04-0.99-0.11-1.47-0.21 1.34-0.19 2.63-0.61 3.82-1.23 0.02-0.01 0.03-0.02 0.04-0.02 4.42-2.14 7.7-6.92 8.16-12.7 0.59-7.5-3.8-14.1-10.07-15.62 0.62-0.05 1.24-0.06 1.86-0.01zm-1.86 0.01c-0.22 0.01-0.45 0.04-0.68 0.07-0.48-0.1-0.97-0.17-1.47-0.21-2.08-0.16-4.1 0.24-5.92 1.09 1.91-0.96 4.04-1.42 6.24-1.25 0.63 0.05 1.24 0.15 1.83 0.3z"/>
  <path id="path2609" fill-rule="evenodd" fill="#b78e2a" d="m223 582.4c-0.43 5.5-4.7 9.66-9.53 9.28-4.82-0.38-8.39-5.15-7.95-10.66 0.43-5.5 4.69-9.65 9.52-9.27s8.39 5.15 7.96 10.65z"/>
  <path id="path2611" fill-rule="evenodd" fill="#cd9c47" d="m213.48 570.97c-4.82-0.38-9.09 3.77-9.52 9.28-0.44 5.5 3.13 10.27 7.95 10.65 0.34 0.02 0.67 0.03 0.99 0.01-0.86-0.27-1.66-0.68-2.39-1.21-0.01-0.01-0.02-0.01-0.02-0.02-2.7-1.87-4.37-5.38-4.06-9.24 0.39-5.02 3.99-8.92 8.28-9.28-0.4-0.09-0.81-0.16-1.23-0.19zm1.23 0.19c0.15 0.04 0.3 0.08 0.44 0.13 0.33-0.02 0.66-0.02 1 0.01 1.39 0.11 2.68 0.59 3.8 1.34-1.17-0.83-2.52-1.36-4-1.48-0.42-0.03-0.83-0.03-1.24 0z"/>
  <path id="path2613" fill-rule="evenodd" fill-opacity=".80934" fill="#875323" d="m237.08 573.94s-1.03 4.89-1.86 10.44-0.36 11.5-0.36 11.5l8.39 0.71 2.34-22.34-8.51-0.31z"/>
  <path id="path2615" fill-rule="evenodd" fill-opacity=".42412" fill="#875323" d="m249.94 574.95s0.83 5.06-0.19 10.57c-1.13 6.06-4.01 12.36-4.01 12.36l-2.4-1.28 1.41-22.42 5.19 0.77z"/>
  <path id="path2617" fill-rule="evenodd" fill-opacity=".54118" fill="#c8b79b" d="m249.99 574.89c-2.93-5.88-7.91-11.46-12.91-17.51l-5.35-0.89 10.57 16.65 7.69 1.75z"/>
  <path id="path2619" fill-rule="evenodd" fill-opacity=".36965" fill="#c89a19" d="m246.77 596.59c-4.25 4.09-9.29 6.69-14.69 9.78l-6.37 1.14 17.35-10.64 3.71-0.28z"/>
  <path id="path2621" filter="url(#filter3994)" fill-rule="evenodd" fill="url(#linearGradient2719)" d="m211.59 567.35c-6.34-0.5-12 5.56-12.63 13.53s4.01 14.84 10.35 15.34c0.44 0.03 0.87 0.03 1.3 0-1.13-0.37-2.18-0.96-3.13-1.72l-0.03-0.03c-3.52-2.68-7.34-7.41-6.66-12.98 1.32-10.93 6.76-13.31 12.41-13.87-0.53-0.13-1.06-0.22-1.61-0.27zm1.61 0.27c0.19 0.06 0.39 0.12 0.58 0.18 0.43-0.03 0.87-0.03 1.31 0.01 1.83 0.14 3.52 0.82 4.98 1.9-1.52-1.2-3.3-1.95-5.24-2.1-0.55-0.04-1.09-0.04-1.63 0.01z"/>
  <path id="path2623" fill-rule="evenodd" fill="url(#linearGradient2716)" d="m222.39 582.38c0 5.52-3.92 9.99-8.76 9.99-4.85 0-8.77-4.47-8.77-9.99s3.92-10 8.77-10c4.84 0 8.76 4.48 8.76 10z"/>
  <path id="path2625" stroke-width="0" fill-rule="evenodd" fill="#bbbc34" d="m218.26 581.31c0 3.61-2.49 6.54-5.56 6.54s-5.56-2.93-5.56-6.54c0-3.62 2.49-6.55 5.56-6.55s5.56 2.93 5.56 6.55z"/>
  <path id="path2627" stroke-linejoin="round" d="m-4282.4-8856.5l29.2 361.5" transform="matrix(.58921 0 0 .58921 2731.3 5468.4)" filter="url(#filter7804)" stroke="#b9e6ff" stroke-linecap="round" stroke-width="4.7" fill="none"/>
  <path id="path2629" d="m-4436.6-8446.7c33.6 22.4 228.7 37.4 315.8 39.4 30.3 0.7 3.7 46.4 24.2 44.4 15.1-1.4-61.6 8.2-49.9 4.8-48.5 13.1-94.8 15.1-82.2 21.4l-207.9-110z" fill-opacity=".19066" fill-rule="evenodd" transform="matrix(.37360 -.14287 0 .44364 1990.4 3658.5)" filter="url(#filter8161)"/>
  <path id="path2631" stroke="#7f7f7f" stroke-width="3.3341" fill="none" d="m408.29 571.82l14.32 213.78"/>
  <path id="path2633" fill-rule="evenodd" fill="#bcbcbc" d="m153.12 232.56l-78.113 36.02-33.039-18.16s9.684-8.37 20.943-14.98c14.48-8.51 90.209-2.88 90.209-2.88z"/>
  <path id="path2635" opacity=".90698" fill-rule="evenodd" fill="url(#linearGradient2708)" d="m167.71 446.42c54.08 31.04 96.62 32.89 143.36 32.96 49.34 0.08 99.98-3.26 149.76-26.29l-2.5 49.68c-35.27 27.46-100.08 37.42-149.62 37.78-48.21 0.34-121.66-11.13-141-44.45v-49.68z"/>
  <path id="path2637" fill-rule="evenodd" fill="url(#linearGradient2705)" d="m145.63 385.73s6.96 30.64 13.7 46.94c5.32 12.86 10.9 15.34 10.9 15.34l54.03 15.67-14.4-214.85-58.55-15.81-5.68 152.71z"/>
  <path id="path2639" fill-rule="evenodd" fill="url(#linearGradient2702)" d="m145.63 385.73s6.96 30.64 13.7 46.94c5.32 12.86 10.9 15.34 10.9 15.34l54.03 15.67-14.4-214.85-58.55-15.81-5.68 152.71z"/>
  <path id="path3888" d="m176.02 508.87c74 46.51 207.53 41.43 279.46-3.09" filter="url(#filter3910)" stroke="#000" stroke-width="2" fill="none"/>
  <metadata>
    <rdf:RDF>
      <cc:Work>
        <dc:format>image/svg+xml</dc:format>
        <dc:type rdf:resource="http://purl.org/dc/dcmitype/StillImage"/>
        <cc:license rdf:resource="http://creativecommons.org/licenses/publicdomain/"/>
        <dc:publisher>
          <cc:Agent rdf:about="http://openclipart.org/">
            <dc:title>Openclipart</dc:title>
          </cc:Agent>
        </dc:publisher>
        <dc:title>italian coffee maker</dc:title>
        <dc:date>2007-04-10T11:12:00</dc:date>
        <dc:description>a stove top, Italian style espresso maker.</dc:description>
        <dc:source>http://openclipart.org/detail/3859/italian-coffee-maker-by-pipo</dc:source>
        <dc:creator>
          <cc:Agent>
            <dc:title>pipo</dc:title>
          </cc:Agent>
        </dc:creator>
        <dc:subject>
          <rdf:Bag>
            <rdf:li>cafe</rdf:li>
            <rdf:li>clip art</rdf:li>
            <rdf:li>clipart</rdf:li>
            <rdf:li>coffee</rdf:li>
            <rdf:li>editorial pick</rdf:li>
            <rdf:li>espresso</rdf:li>
            <rdf:li>food</rdf:li>
            <rdf:li>household</rdf:li>
            <rdf:li>kitchen</rdf:li>
            <rdf:li>maker</rdf:li>
            <rdf:li>metal</rdf:li>
            <rdf:li>metallic</rdf:li>
            <rdf:li>photorealistic</rdf:li>
            <rdf:li>remix problem</rdf:li>
          </rdf:Bag>
        </dc:subject>
      </cc:Work>
      <cc:License rdf:about="http://creativecommons.org/licenses/publicdomain/">
        <cc:permits rdf:resource="http://creativecommons.org/ns#Reproduction"/>
        <cc:permits rdf:resource="http://creativecommons.org/ns#Distribution"/>
        <cc:permits rdf:resource="http://creativecommons.org/ns#DerivativeWorks"/>
      </cc:License>
    </rdf:RDF>
  </metadata>
</svg>
